<svg width="340" height="254" viewBox="0 0 340 254" fill="none" xmlns="http://www.w3.org/2000/svg">
<path d="M305.022 153.478V181.1L339.499 166.619L305.022 153.478Z" fill="#FBAB2E" fill-opacity="0.1"/>
<path d="M293.864 113.308L302.469 139.555L330.719 115.054L293.864 113.308Z" fill="#FBAB2E" fill-opacity="0.1"/>
<path d="M270.391 77.4893L286.864 99.661L305.902 67.476L270.391 77.4893Z" fill="#FBAB2E" fill-opacity="0.1"/>
<path d="M238.313 51.7745L260.992 67.5423L268.784 30.9689L238.313 51.7745Z" fill="#FBAB2E" fill-opacity="0.1"/>
<path d="M198.552 36.9892L224.828 45.5048L221.682 8.24322L198.552 36.9892Z" fill="#FBAB2E" fill-opacity="0.1"/>
<path d="M156.797 34.5795L184.419 34.6018L169.967 0.113435L156.797 34.5795Z" fill="#FBAB2E" fill-opacity="0.1"/>
<path d="M114.701 44.0582L141.046 35.7604L116.878 7.2262L114.701 44.0582Z" fill="#FBAB2E" fill-opacity="0.1"/>
<path d="M78.8173 67.5423L101.486 51.7591L69.9018 31.7393L78.8173 67.5423Z" fill="#FBAB2E" fill-opacity="0.1"/>
<path d="M54.3255 99.4181L70.3329 76.9076L33.8442 68.7284L54.3255 99.4181Z" fill="#FBAB2E" fill-opacity="0.1"/>
<path d="M38.0394 140.33L47.0208 114.21L9.70914 116.693L38.0394 140.33Z" fill="#FBAB2E" fill-opacity="0.1"/>
<path d="M34.7495 183.237L35.3944 155.622L0.588974 169.294L34.7495 183.237Z" fill="#FBAB2E" fill-opacity="0.1"/>
<circle cx="170.622" cy="171.511" r="128.386" fill="#FBAB2E" fill-opacity="0.1"/>
</svg>
