<svg width="20" height="20" viewBox="0 0 20 20" fill="none" xmlns="http://www.w3.org/2000/svg">
<path d="M3.05485 9.25981C2.70968 9.26078 2.37183 9.35945 2.0804 9.54442C1.78896 9.72938 1.55586 9.99308 1.40804 10.305C1.26022 10.6169 1.20374 10.9643 1.24512 11.307C1.2865 11.6497 1.42406 11.9737 1.64189 12.2414L6.28535 17.9297C6.45091 18.1352 6.66314 18.2983 6.90439 18.4054C7.14565 18.5125 7.40898 18.5605 7.6725 18.5454C8.23612 18.5151 8.74496 18.2136 9.06939 17.7179L18.715 2.18358C18.7166 2.18098 18.7183 2.17842 18.72 2.17588C18.8105 2.03692 18.7811 1.76154 18.5943 1.58854C18.543 1.54103 18.4825 1.50453 18.4165 1.48129C18.3506 1.45805 18.2806 1.44855 18.2108 1.45339C18.141 1.45823 18.073 1.4773 18.0109 1.50943C17.9488 1.54155 17.8939 1.58605 17.8496 1.64019C17.8462 1.64445 17.8426 1.64864 17.8389 1.65277L8.11116 12.6437C8.07414 12.6855 8.02918 12.7196 7.9789 12.7439C7.92861 12.7682 7.874 12.7822 7.81823 12.7853C7.76246 12.7883 7.70664 12.7802 7.65403 12.7614C7.60141 12.7427 7.55304 12.7137 7.51173 12.6761L4.28327 9.73819C3.94797 9.43082 3.50972 9.26015 3.05485 9.25981Z" fill="#EE1B24"/>
</svg>
