<svg width="32" height="32" viewBox="0 0 32 32" fill="none" xmlns="http://www.w3.org/2000/svg">
<path d="M16 32C24.8366 32 32 24.8366 32 16C32 7.16344 24.8366 0 16 0C7.16344 0 0 7.16344 0 16C0 24.8366 7.16344 32 16 32Z" fill="#F0F0F0"/>
<path d="M3.30758 6.2589C2.05077 7.89408 1.10308 9.77877 0.55127 11.8262H8.87489L3.30758 6.2589ZM31.4489 11.8262C30.8971 9.77883 29.9493 7.89415 28.6926 6.25896L23.1254 11.8262H31.4489ZM0.55127 20.174C1.10314 22.2214 2.05083 24.1061 3.30758 25.7412L8.87471 20.174H0.55127ZM25.7412 3.30758C24.106 2.05077 22.2214 1.10308 20.174 0.551208V8.87477L25.7412 3.30758ZM6.25896 28.6925C7.89414 29.9493 9.77883 30.897 11.8262 31.4488V23.1253L6.25896 28.6925ZM11.8261 0.551208C9.77877 1.10308 7.89408 2.05077 6.25896 3.30752L11.8261 8.87471V0.551208ZM20.174 31.4488C22.2214 30.897 24.1061 29.9493 25.7412 28.6925L20.174 23.1253V31.4488ZM23.1254 20.174L28.6926 25.7413C29.9493 24.1061 30.8971 22.2214 31.4489 20.174H23.1254Z" fill="#0052B4"/>
<path d="M31.8646 13.9131H18.087V0.135438C17.395 0.0452753 16.6979 3.47629e-05 16 0C15.2926 0 14.5962 0.0465 13.9131 0.135438V13.913H0.135438C0.0452753 14.605 3.47629e-05 15.3021 0 16C0 16.7074 0.0465 17.4038 0.135438 18.0869H13.913V31.8646C15.2985 32.0451 16.7015 32.0451 18.0869 31.8646V18.087H31.8646C31.9547 17.395 32 16.6979 32 16C32 15.2927 31.9535 14.5962 31.8646 13.9131Z" fill="#D80027"/>
<path d="M20.174 20.174L27.3137 27.3137C27.6419 26.9851 27.9557 26.6424 28.2542 26.2865L22.1416 20.1739H20.174V20.174ZM11.8261 20.174H11.826L4.68629 27.3137C5.0149 27.6419 5.35762 27.9557 5.71347 28.2542L11.8261 22.1414V20.174ZM11.8261 11.8262V11.826L4.68635 4.68622C4.35813 5.01484 4.04433 5.35756 3.74585 5.71341L9.85854 11.8261H11.8261V11.8262ZM20.174 11.8262L27.3138 4.68629C26.9852 4.35807 26.6425 4.04429 26.2866 3.74585L20.174 9.85854V11.8262Z" fill="#D80027"/>
</svg>
