<svg width="32" height="32" viewBox="0 0 32 32" fill="none" xmlns="http://www.w3.org/2000/svg">
<rect width="32" height="32" rx="16" fill="#EE1B24"/>
<path d="M16.0002 6C11.8654 6 8.50049 9.3882 8.50049 13.5539C8.50049 19.4728 15.2952 25.5842 15.5844 25.8409C15.6987 25.9432 15.8466 25.9998 16 26C16.1534 26.0002 16.3015 25.9438 16.416 25.8417C16.7052 25.5842 23.4999 19.4728 23.4999 13.5539C23.4999 9.3882 20.135 6 16.0002 6ZM16.0002 17.6662C13.7028 17.6662 11.8337 15.7971 11.8337 13.4997C11.8337 11.2023 13.7028 9.3332 16.0002 9.3332C18.2976 9.3332 20.1667 11.2023 20.1667 13.4997C20.1667 15.7971 18.2976 17.6662 16.0002 17.6662Z" fill="white"/>
</svg>
