<svg width="24" height="25" viewBox="0 0 24 25" fill="none" xmlns="http://www.w3.org/2000/svg">
<path d="M11.9997 3.00293C8.03026 3.00293 4.79999 6.2556 4.79999 10.2546C4.79999 15.9368 11.3229 21.8038 11.6005 22.0502C11.7102 22.1484 11.8523 22.2028 11.9996 22.2029C12.1468 22.2031 12.289 22.149 12.3989 22.051C12.6765 21.8038 19.1994 15.9368 19.1994 10.2546C19.1994 6.2556 15.9692 3.00293 11.9997 3.00293ZM11.9997 14.2025C9.79419 14.2025 7.99986 12.4082 7.99986 10.2027C7.99986 7.99714 9.79419 6.20281 11.9997 6.20281C14.2052 6.20281 15.9996 7.99714 15.9996 10.2027C15.9996 12.4082 14.2052 14.2025 11.9997 14.2025Z" fill="white" fill-opacity="0.5"/>
</svg>
