<svg width="72" height="72" viewBox="0 0 72 72" fill="none" xmlns="http://www.w3.org/2000/svg">
<path fill-rule="evenodd" clip-rule="evenodd" d="M34.4592 20.592C30.517 20.9925 26.8791 22.8916 24.2968 25.8971C21.7145 28.9026 20.385 32.785 20.5827 36.7426C20.7804 40.7002 22.4904 44.4307 25.3594 47.1638C28.2285 49.8969 32.0375 51.424 36 51.4296C38.0324 51.4402 40.0466 51.0465 41.9254 50.2715C43.8042 49.4965 45.5102 48.3556 46.944 46.9152C49.8323 44.0159 51.4576 40.0924 51.4656 36C51.4656 35.5392 51.4656 35.0064 50.8536 35.0064H46.8C46.188 35.0064 46.188 35.5392 46.188 36C46.1686 38.7104 45.0973 41.3074 43.2 43.2432C41.2888 45.1496 38.6995 46.2202 36 46.2202C33.3005 46.2202 30.7112 45.1496 28.8 43.2432C26.8974 41.3097 25.8208 38.7124 25.7976 36C25.8033 33.2952 26.8798 30.7028 28.7917 28.7895C30.7036 26.8763 33.2953 25.798 36 25.7904C36.4608 25.7904 36.9936 25.7904 36.9936 25.1784V4.74476C37.0147 4.6015 37.0048 4.45537 36.9644 4.31631C36.924 4.17725 36.8541 4.04853 36.7594 3.93892C36.6648 3.8293 36.5477 3.74136 36.416 3.68108C36.2843 3.6208 36.1412 3.5896 35.9964 3.5896C35.8516 3.5896 35.7085 3.6208 35.5768 3.68108C35.4451 3.74136 35.328 3.8293 35.2334 3.93892C35.1388 4.04853 35.0689 4.17725 35.0284 4.31631C34.988 4.45537 34.9781 4.6015 34.9992 4.74476V19.98C35.0037 20.1303 34.9514 20.2768 34.8526 20.3903C34.7538 20.5037 34.6159 20.5757 34.4664 20.592H34.4592ZM63.4176 17.0712L54.5328 25.92C54.4419 26.0196 54.3305 26.0983 54.2061 26.1505C54.0818 26.2027 53.9476 26.2272 53.8128 26.2224H48.0168C47.6971 26.2353 47.3949 26.3721 47.1744 26.604L36.6048 37.116C36.5145 37.2067 36.4072 37.2788 36.2891 37.3281C36.1709 37.3774 36.0442 37.403 35.9161 37.4033C35.7881 37.4037 35.6613 37.3788 35.5429 37.3301C35.4244 37.2814 35.3168 37.2099 35.226 37.1196C35.1352 37.0293 35.0631 36.922 35.0138 36.8038C34.9645 36.6857 34.939 36.5589 34.9386 36.4309C34.9383 36.3029 34.9632 36.176 35.0119 36.0576C35.0606 35.9392 35.1321 35.8315 35.2224 35.7408L45.72 25.2576C45.8531 25.147 45.9559 25.0044 46.0189 24.8432C46.0819 24.682 46.1029 24.5075 46.08 24.336V18.576C46.0837 18.4471 46.1129 18.3203 46.1661 18.2029C46.2192 18.0854 46.2952 17.9797 46.3896 17.892L55.3752 8.95676C55.5158 8.82062 55.6934 8.72903 55.8859 8.69347C56.0783 8.6579 56.2769 8.67996 56.4569 8.75686C56.6368 8.83376 56.7901 8.96208 56.8974 9.12573C57.0046 9.28938 57.0612 9.48107 57.06 9.67676V14.8032C57.059 14.8838 57.0742 14.9638 57.1046 15.0385C57.135 15.1132 57.1801 15.181 57.2371 15.2381C57.2941 15.2951 57.362 15.3401 57.4367 15.3705C57.5113 15.401 57.5914 15.4161 57.672 15.4152H62.712C62.9108 15.4066 63.1074 15.4589 63.2758 15.5649C63.4442 15.6709 63.5762 15.8257 63.6544 16.0087C63.7326 16.1916 63.7532 16.3941 63.7135 16.589C63.6737 16.784 63.5756 16.9622 63.432 17.1L63.4176 17.0712ZM54.0576 34.9776H67.4784C67.7419 34.9776 67.9946 35.0822 68.181 35.2686C68.3673 35.4549 68.472 35.7076 68.472 35.9712C68.472 36.2347 68.3673 36.4874 68.181 36.6737C67.9946 36.8601 67.7419 36.9648 67.4784 36.9648H62.2728C62.1905 36.957 62.1075 36.9675 62.0297 36.9955C61.9519 37.0235 61.8813 37.0683 61.8228 37.1268C61.7643 37.1852 61.7195 37.2559 61.6915 37.3337C61.6635 37.4114 61.653 37.4945 61.6608 37.5768C61.287 42.8338 59.3739 47.8646 56.16 52.0416C52.5884 56.587 47.5888 59.7957 41.9688 61.1496C41.508 61.2288 40.968 61.1496 40.968 60.5376V53.1144C40.9857 52.9899 41.0384 52.873 41.12 52.7774C41.2016 52.6818 41.3087 52.6114 41.4288 52.5744C44.0229 51.6698 46.3803 50.1934 48.3264 48.2544C51.5909 45.0092 53.4368 40.6029 53.46 36C53.46 35.5392 53.46 35.0064 54.072 35.0064L54.0576 34.9776ZM36.9864 54V67.392C36.9652 67.6418 36.8509 67.8746 36.6662 68.0442C36.4816 68.2138 36.24 68.308 35.9892 68.308C35.7385 68.308 35.4968 68.2138 35.3122 68.0442C35.1275 67.8746 35.0133 67.6418 34.992 67.392V62.352C34.9982 62.2012 34.9465 62.0537 34.8474 61.9399C34.7483 61.8261 34.6094 61.7546 34.4592 61.74C28.9673 61.3722 23.7389 59.2493 19.5452 55.6843C15.3515 52.1193 12.4144 47.301 11.1672 41.94C11.016 41.4792 11.1672 41.0256 11.7 41.0256H18.828C18.9674 41.0152 19.106 41.0554 19.2183 41.1386C19.3306 41.2219 19.4093 41.3427 19.44 41.4792C20.5988 44.9548 22.8216 47.9779 25.7936 50.1203C28.7656 52.2627 32.3363 53.416 36 53.4168C36.4608 53.4168 36.9936 53.4168 36.9936 54.0288L36.9864 54ZM17.9064 36.936H4.5792C4.31568 36.936 4.06296 36.8313 3.87662 36.6449C3.69028 36.4586 3.5856 36.2059 3.5856 35.9424C3.5856 35.6788 3.69028 35.4261 3.87662 35.2398C4.06296 35.0534 4.31568 34.9488 4.5792 34.9488H9.7848C9.95045 34.9643 10.116 34.9176 10.2491 34.8178C10.3822 34.7179 10.4733 34.5721 10.5048 34.4088C10.7784 28.9214 12.7886 23.6628 16.2452 19.3922C19.7018 15.1216 24.4261 12.0598 29.736 10.6488C29.8272 10.6322 29.921 10.6354 30.0109 10.6582C30.1008 10.681 30.1847 10.7228 30.2571 10.7808C30.3294 10.8388 30.3885 10.9117 30.4303 10.9945C30.472 11.0773 30.4955 11.1681 30.4992 11.2608V18.9792C30.5109 19.1088 30.48 19.2387 30.4111 19.3492C30.3423 19.4597 30.2392 19.5446 30.1176 19.5912C27.7033 20.4628 25.5071 21.8483 23.6808 23.652C22.0479 25.2676 20.7511 27.1905 19.8651 29.3098C18.979 31.4291 18.5214 33.7029 18.5184 36C18.5184 36.4608 18.5184 36.9936 17.9064 36.9936V36.936ZM43.5744 34.9488H42.5808C42.5018 34.9463 42.4237 34.9668 42.356 35.0076C42.2883 35.0485 42.2339 35.1081 42.1992 35.1792L38.4408 38.9304C35.1504 42.1704 30.24 37.1952 33.4656 33.984L36.756 30.6144C36.8255 30.5777 36.8836 30.5228 36.9242 30.4556C36.9648 30.3883 36.9863 30.3113 36.9864 30.2328V28.3968C36.9762 28.2378 36.9085 28.088 36.7958 27.9753C36.6832 27.8627 36.5334 27.7949 36.3744 27.7848C34.7172 27.7245 33.0805 28.1663 31.6787 29.0523C30.277 29.9382 29.1755 31.227 28.5188 32.7497C27.8621 34.2724 27.6806 35.9579 27.9983 37.5855C28.316 39.213 29.1179 40.7067 30.2991 41.8706C31.4802 43.0346 32.9854 43.8145 34.6175 44.1083C36.2495 44.4021 37.9322 44.196 39.4451 43.5171C40.958 42.8381 42.2305 41.7179 43.0958 40.3033C43.9611 38.8887 44.3789 37.2457 44.2944 35.5896C44.2684 35.4179 44.1812 35.2614 44.0488 35.1489C43.9165 35.0365 43.748 34.9756 43.5744 34.9776V34.9488Z" fill="#FBAB2E"/>
</svg>
