<svg width="24" height="25" viewBox="0 0 24 25" fill="none" xmlns="http://www.w3.org/2000/svg">
<path d="M16.9969 15.7041C16.3696 15.0848 15.5866 15.0848 14.9633 15.7041C14.4878 16.1756 14.0124 16.647 13.5449 17.1264C13.4171 17.2583 13.3092 17.2863 13.1534 17.1984C12.8458 17.0306 12.5181 16.8947 12.2225 16.7109C10.8441 15.8439 9.68945 14.7292 8.66664 13.4747C8.15923 12.8514 7.70776 12.1842 7.39213 11.4331C7.3282 11.2813 7.34019 11.1814 7.46404 11.0575C7.93949 10.5981 8.40295 10.1266 8.8704 9.65517C9.52164 8.99993 9.52164 8.23283 8.86641 7.5736C8.49484 7.19803 8.12327 6.83046 7.75171 6.4549C7.36816 6.07135 6.9886 5.6838 6.60105 5.30424C5.97378 4.69296 5.1907 4.69296 4.56743 5.30824C4.08798 5.77969 3.62852 6.26312 3.14109 6.72658C2.68962 7.15408 2.46188 7.67747 2.41394 8.28876C2.33803 9.2836 2.58174 10.2225 2.92534 11.1374C3.62852 13.0312 4.69927 14.7133 5.99776 16.2555C7.75171 18.341 9.84526 19.9911 12.2944 21.1817C13.3971 21.7171 14.5398 22.1286 15.7823 22.1965C16.6373 22.2445 17.3805 22.0287 17.9758 21.3615C18.3833 20.906 18.8428 20.4905 19.2743 20.055C19.9135 19.4078 19.9175 18.6247 19.2822 17.9854C18.5231 17.2223 17.76 16.4632 16.9969 15.7041ZM16.2338 12.5198L17.7081 12.2681C17.4764 10.9137 16.8371 9.68713 15.8662 8.71227C14.8394 7.68546 13.541 7.03822 12.1106 6.83845L11.9029 8.32072C13.0096 8.47654 14.0164 8.97596 14.8115 9.77103C15.5626 10.5222 16.054 11.473 16.2338 12.5198ZM18.5391 6.1113C16.8371 4.40929 14.6836 3.33454 12.3064 3.00293L12.0986 4.4852C14.1522 4.77286 16.0141 5.70378 17.4843 7.17007C18.8787 8.56444 19.7937 10.3264 20.1253 12.2641L21.5995 12.0124C21.212 9.76703 20.1532 7.72941 18.5391 6.1113Z" fill="white" fill-opacity="0.5"/>
</svg>
