<svg width="32" height="32" viewBox="0 0 32 32" fill="none" xmlns="http://www.w3.org/2000/svg">
<rect width="32" height="32" rx="16" fill="#EE1B24"/>
<path d="M20.9453 19.0689C20.3246 18.456 19.5497 18.456 18.9329 19.0689C18.4624 19.5354 17.9919 20.0019 17.5293 20.4764C17.4028 20.6069 17.296 20.6345 17.1419 20.5476C16.8374 20.3815 16.5132 20.2471 16.2206 20.0652C14.8566 19.2073 13.714 18.1042 12.7018 16.8627C12.1997 16.2459 11.7529 15.5856 11.4406 14.8423C11.3773 14.6921 11.3892 14.5933 11.5118 14.4707C11.9823 14.016 12.4409 13.5495 12.9035 13.0829C13.5479 12.4345 13.5479 11.6754 12.8995 11.0231C12.5318 10.6514 12.1641 10.2877 11.7964 9.91601C11.4169 9.53646 11.0413 9.15295 10.6578 8.77734C10.037 8.17242 9.26209 8.17242 8.64531 8.7813C8.17087 9.24783 7.71619 9.72623 7.23383 10.1849C6.78706 10.6079 6.5617 11.1259 6.51426 11.7308C6.43914 12.7152 6.68031 13.6444 7.02033 14.5498C7.71619 16.4238 8.77578 18.0883 10.0607 19.6145C11.7964 21.6783 13.8682 23.3112 16.2918 24.4894C17.383 25.0192 18.5138 25.4264 19.7434 25.4937C20.5895 25.5411 21.3249 25.3276 21.914 24.6673C22.3173 24.2166 22.7719 23.8054 23.1989 23.3745C23.8315 22.734 23.8355 21.959 23.2069 21.3264C22.4556 20.5713 21.7005 19.8201 20.9453 19.0689ZM20.1902 15.9178L21.6491 15.6687C21.4198 14.3284 20.7872 13.1146 19.8264 12.1499C18.8103 11.1338 17.5254 10.4933 16.1099 10.2956L15.9043 11.7624C16.9995 11.9166 17.9959 12.4108 18.7826 13.1976C19.5259 13.9409 20.0123 14.8819 20.1902 15.9178ZM22.4715 9.57599C20.7872 7.89171 18.6561 6.82816 16.3037 6.5L16.0981 7.96683C18.1303 8.2515 19.9727 9.17271 21.4277 10.6237C22.8075 12.0036 23.7129 13.7472 24.0411 15.6647L25.5 15.4156C25.1165 13.1936 24.0688 11.1772 22.4715 9.57599Z" fill="white"/>
</svg>
