<svg width="72" height="72" viewBox="0 0 72 72" fill="none" xmlns="http://www.w3.org/2000/svg">
<path d="M26.5849 28.5H45.4151L36 12.0236L26.5849 28.5ZM50.7064 28.5H71.5939C71.5189 28.3689 71.4343 28.2436 71.3408 28.125L59.8875 13.8086L50.7064 28.5ZM48.0578 27.0776L57.4564 12.0401C57.3055 12.015 57.1529 12.0016 57 12H39.4418L48.0578 27.0776ZM25.9211 31.5L36 71.8151L46.0789 31.5H25.9211ZM49.1711 31.5L39.7399 69.225L71.2901 31.9384C71.4056 31.8017 71.5086 31.655 71.598 31.5H49.1711ZM22.8289 31.5H0.401999C0.491407 31.6547 0.594441 31.8012 0.709874 31.9376L32.2601 69.225L22.8289 31.5ZM23.9423 27.0776L32.5583 12H15C14.8471 12.0008 14.6946 12.0133 14.5436 12.0375L23.9423 27.0776ZM21.2936 28.5L12.1125 13.8086L0.657374 28.125C0.563832 28.2436 0.479224 28.3689 0.404248 28.5H21.2936Z" fill="#FBAB2E"/>
</svg>
