<svg width="72" height="72" viewBox="0 0 72 72" fill="none" xmlns="http://www.w3.org/2000/svg">
<path d="M65.2032 65.6424L57.6 48.888L49.356 30.5208C49.2998 30.4058 49.2215 30.3031 49.1256 30.2184L43.9992 24.4584C43.8998 24.3596 43.7707 24.2962 43.6318 24.2778C43.4929 24.2593 43.3517 24.287 43.23 24.3564C43.1083 24.4258 43.0127 24.5333 42.9578 24.6622C42.903 24.7912 42.8919 24.9346 42.9264 25.0704L49.7376 48.888C49.8183 49.0426 49.8402 49.2212 49.7991 49.3907C49.7581 49.5602 49.6569 49.7091 49.5144 49.8096L41.1696 58.3776C40.9866 58.552 40.8652 58.781 40.8236 59.0303C40.7821 59.2797 40.8226 59.5357 40.9392 59.76L44.7624 67.68C44.8655 67.8975 45.0289 68.081 45.233 68.2086C45.4372 68.3362 45.6736 68.4026 45.9144 68.4H67.4208C67.6843 68.4 67.937 68.2953 68.1234 68.109C68.3097 67.9227 68.4144 67.6699 68.4144 67.4064C68.4144 67.1429 68.3097 66.8902 68.1234 66.7038C67.937 66.5175 67.6843 66.4128 67.4208 66.4128H66.3552C66.1065 66.4222 65.8611 66.3527 65.6543 66.2144C65.4474 66.076 65.2895 65.8758 65.2032 65.6424ZM41.5512 27.36L47.52 48.1968C47.5793 48.4096 47.5827 48.6341 47.5297 48.8486C47.4767 49.063 47.3692 49.2601 47.2176 49.4208L38.7144 58.0608C38.5693 58.2104 38.4709 58.399 38.4313 58.6036C38.3917 58.8082 38.4125 59.0199 38.4912 59.2128L42.0912 66.5568C42.1824 66.7526 42.2232 66.968 42.21 67.1836C42.1968 67.3991 42.1299 67.6079 42.0155 67.7911C41.901 67.9742 41.7426 68.1258 41.5546 68.2322C41.3667 68.3385 41.1551 68.3962 40.9392 68.4H4.57917C4.31565 68.4 4.06293 68.2953 3.87659 68.109C3.69025 67.9227 3.58557 67.6699 3.58557 67.4064C3.58557 67.1429 3.69025 66.8902 3.87659 66.7038C4.06293 66.5175 4.31565 66.4128 4.57917 66.4128H7.09917C7.24591 66.4062 7.38476 66.3445 7.48797 66.24L17.6688 56.6928C17.7662 56.6002 17.8434 56.4884 17.8955 56.3645C17.9475 56.2406 17.9733 56.1072 17.9712 55.9728L20.1312 43.5024C20.1259 43.3594 20.1583 43.2176 20.2253 43.0912C20.2923 42.9648 20.3915 42.8583 20.5128 42.7824L25.1064 38.7288C25.2442 38.6031 25.4086 38.5101 25.5873 38.4568C25.7661 38.4035 25.9546 38.3913 26.1387 38.4211C26.3229 38.4508 26.4979 38.5218 26.6508 38.6287C26.8037 38.7356 26.9304 38.8757 27.0216 39.0384L35.5824 53.784C35.6476 53.8942 35.7339 53.9904 35.8363 54.0672C35.9388 54.144 36.0553 54.1999 36.1793 54.2316C36.3034 54.2634 36.4324 54.2704 36.5592 54.2523C36.6859 54.2342 36.8078 54.1912 36.918 54.126C37.0281 54.0608 37.1244 53.9745 37.2012 53.872C37.278 53.7696 37.3338 53.6531 37.3656 53.529C37.3973 53.405 37.4044 53.276 37.3862 53.1492C37.3681 53.0225 37.3252 52.9006 37.26 52.7904L30.1464 40.6224C30.0326 40.4254 29.9727 40.2019 29.9727 39.9744C29.9727 39.7469 30.0326 39.5234 30.1464 39.3264L39.3264 23.94C39.4715 23.7687 39.553 23.5525 39.5568 23.328V4.60801C39.5591 4.44449 39.6011 4.28399 39.6793 4.14036C39.7575 3.99672 39.8695 3.87426 40.0055 3.78355C40.1416 3.69284 40.2977 3.63659 40.4604 3.61967C40.623 3.60275 40.7873 3.62565 40.9392 3.68641L53.3376 9.04321C53.5093 9.12739 53.6539 9.25804 53.7551 9.42031C53.8563 9.58259 53.9099 9.76998 53.9099 9.96121C53.9099 10.1524 53.8563 10.3398 53.7551 10.5021C53.6539 10.6644 53.5093 10.795 53.3376 10.8792L42.2424 15.6024C42.0226 15.706 41.835 15.8671 41.6994 16.0686C41.5637 16.2702 41.4852 16.5046 41.472 16.7472V27.0792C41.472 27.1584 41.5512 27.3096 41.5512 27.3888V27.36Z" fill="#FBAB2E"/>
</svg>
