<svg width="1214" height="549" viewBox="0 0 1214 549" fill="none" xmlns="http://www.w3.org/2000/svg">
<rect y="22.0001" width="235" height="72" rx="8" fill="white"/>
<rect x="0.5" y="22.5001" width="234" height="71" rx="7.5" stroke="#2B323B" stroke-opacity="0.08"/>
<path d="M34.3209 65.0201V54.2801L29.5609 60.9001H29.0809L24.3809 54.2801V65.0201H22.1409V51.0201C23.0209 51.0201 23.8409 51.0201 24.7409 51.0201L29.3609 57.5801L33.9609 51.0201H36.5609V65.0201H34.3209ZM47.3557 56.7001L47.4157 55.1401H49.4157C49.4157 58.4201 49.4157 61.7201 49.4157 65.0001H47.4557L47.3557 63.4001C46.6957 64.6601 45.1757 65.2601 43.9557 65.2601C41.0757 65.2801 38.8957 63.4201 38.8957 60.0601C38.8957 56.7601 41.1557 54.9201 43.9957 54.9201C45.3957 54.9201 46.7357 55.5801 47.3557 56.7001ZM44.1557 56.8001C42.3957 56.8001 40.9557 58.0401 40.9557 60.0601C40.9557 62.1001 42.3957 63.3401 44.1557 63.3401C48.4157 63.3401 48.4157 56.8001 44.1557 56.8001ZM53.3105 52.5201L55.3905 52.3001V55.1601H58.2705V56.9401H55.3705V61.6401C55.3705 62.6801 55.8305 63.2601 56.7905 63.2601C57.1905 63.2601 57.6505 63.1201 58.0505 62.9201L58.6505 64.6801C57.9705 64.9801 57.3705 65.1201 56.6705 65.1201C54.5305 65.1801 53.3105 63.9601 53.3105 61.6401V56.9401H51.4105V55.1601H53.3105V52.5201ZM69.8951 60.8401H61.8951C62.0751 62.3401 63.3151 63.3201 65.1151 63.3201C66.1151 63.3201 67.3751 62.9401 67.9751 62.2601L69.3151 63.5601C68.2951 64.6801 66.5951 65.2401 65.0751 65.2401C61.8351 65.2401 59.7551 63.1801 59.7551 60.0201C59.7551 57.0201 61.8551 54.8801 64.9351 54.8801C68.1151 54.8801 70.2751 56.8201 69.8951 60.8401ZM61.9351 59.1001H67.9151C67.7951 57.5401 66.6551 56.7201 64.9951 56.7201C63.4951 56.7201 62.2551 57.5401 61.9351 59.1001ZM71.9957 55.1401H73.9157L74.0557 56.4401C74.7757 55.1801 75.8957 54.9201 76.9557 54.9201C77.9157 54.9201 78.8357 55.2601 79.3957 55.7601L78.4557 57.5601C77.9557 57.1601 77.4757 56.9601 76.7157 56.9601C75.2957 56.9601 74.0557 57.8401 74.0557 59.6601V65.0001H71.9957V55.1401ZM82.8643 55.1001V65.0001H80.8043V55.1001H82.8643ZM80.4443 52.0601C80.4443 53.9401 83.2643 53.9401 83.2643 52.0601C83.2643 50.2201 80.4443 50.2201 80.4443 52.0601ZM93.5276 56.7001L93.5876 55.1401H95.5876C95.5876 58.4201 95.5876 61.7201 95.5876 65.0001H93.6276L93.5276 63.4001C92.8676 64.6601 91.3476 65.2601 90.1276 65.2601C87.2476 65.2801 85.0676 63.4201 85.0676 60.0601C85.0676 56.7601 87.3276 54.9201 90.1676 54.9201C91.5676 54.9201 92.9076 55.5801 93.5276 56.7001ZM90.3276 56.8001C88.5676 56.8001 87.1276 58.0401 87.1276 60.0601C87.1276 62.1001 88.5676 63.3401 90.3276 63.3401C94.5876 63.3401 94.5876 56.8001 90.3276 56.8001ZM98.4624 51.0201H100.522V65.0001H98.4624V51.0201ZM113.722 63.2201C115.522 63.2201 116.842 61.9201 116.842 60.0801C116.842 58.2201 115.602 56.9401 113.722 56.9401C111.822 56.9401 110.622 58.3201 110.622 60.0801C110.622 61.8401 111.922 63.2201 113.722 63.2201ZM110.442 69.5801H108.382V55.1401H110.322L110.442 56.7401C111.202 55.5401 112.602 54.9401 113.922 54.9401C116.862 54.9601 118.902 57.1001 118.902 60.0801C118.902 63.0601 116.982 65.2201 113.922 65.2201C112.722 65.2201 111.182 64.7801 110.442 63.5601V69.5801ZM120.937 55.1401H122.997V60.4201C122.997 62.1001 123.957 63.2601 125.677 63.2601C127.297 63.2601 128.417 61.9201 128.417 60.2801V55.1401H130.477V65.0201H128.617L128.497 63.5601C127.537 64.6601 126.477 65.1601 125.097 65.1601C122.677 65.1601 120.937 63.4201 120.937 60.4401V55.1401ZM133.285 55.1401H135.205L135.345 56.4401C136.065 55.1801 137.185 54.9201 138.245 54.9201C139.205 54.9201 140.125 55.2601 140.685 55.7601L139.745 57.5601C139.245 57.1601 138.765 56.9601 138.005 56.9601C136.585 56.9601 135.345 57.8401 135.345 59.6601V65.0001H133.285V55.1401ZM148.76 62.3401L150.16 63.7201C149.06 64.8001 147.84 65.2601 146.42 65.2601C143.58 65.2601 141.22 63.4801 141.22 60.0801C141.22 56.6801 143.56 54.9001 146.42 54.9001C147.78 54.9001 148.92 55.3201 149.98 56.3601L148.66 57.7401C148.04 57.1401 147.22 56.8601 146.44 56.8601C144.66 56.8601 143.28 58.1201 143.28 60.0801C143.28 62.1601 144.72 63.2601 146.42 63.2601C147.26 63.2601 148.12 63.0001 148.76 62.3401ZM151.996 51.0001H154.056V56.6001C154.916 55.4001 156.076 55.0001 157.256 55.0001C160.036 55.0001 161.316 56.8601 161.316 59.6801V65.0001H159.256V59.7001C159.256 57.8401 158.296 56.9201 156.776 56.9201C155.176 56.9201 154.056 58.2401 154.056 59.8601V65.0001H151.996V51.0001ZM171.828 56.7001L171.888 55.1401H173.888C173.888 58.4201 173.888 61.7201 173.888 65.0001H171.928L171.828 63.4001C171.168 64.6601 169.648 65.2601 168.428 65.2601C165.548 65.2801 163.368 63.4201 163.368 60.0601C163.368 56.7601 165.628 54.9201 168.468 54.9201C169.868 54.9201 171.208 55.5801 171.828 56.7001ZM168.628 56.8001C166.868 56.8001 165.428 58.0401 165.428 60.0601C165.428 62.1001 166.868 63.3401 168.628 63.3401C172.888 63.3401 172.888 56.8001 168.628 56.8001ZM184.143 56.2001L182.983 57.5601C182.203 56.8401 181.363 56.6401 180.383 56.6401C179.123 56.6201 178.283 57.0401 178.283 57.8201C178.303 58.6401 179.163 58.9601 180.423 59.0801C182.243 59.2401 184.623 59.6401 184.603 62.1801C184.583 64.0201 182.963 65.3001 180.403 65.3001C178.803 65.3001 177.203 64.9401 175.903 63.4801L176.983 62.0201C177.903 63.0401 179.283 63.4601 180.443 63.4801C181.423 63.4801 182.523 63.1201 182.543 62.2001C182.563 61.3201 181.723 60.9801 180.263 60.8401C178.403 60.6601 176.263 60.0601 176.243 57.8801C176.243 55.7001 178.503 54.8801 180.343 54.8801C181.863 54.8801 183.043 55.2201 184.143 56.2001ZM188.724 55.1001V65.0001H186.664V55.1001H188.724ZM186.304 52.0601C186.304 53.9401 189.124 53.9401 189.124 52.0601C189.124 50.2201 186.304 50.2201 186.304 52.0601ZM201.087 65.0001H199.007V59.7201C199.007 58.0201 198.047 56.8801 196.347 56.8801C194.707 56.8801 193.587 58.2201 193.587 59.8401V65.0001H191.527V55.1201H193.407L193.527 56.5601C194.467 55.5001 195.567 54.9801 196.847 54.9801C199.247 54.9801 201.087 56.6801 201.087 59.7001V65.0001ZM211.134 55.5201L212.214 54.2001L213.714 55.3601L212.534 56.7401C213.354 57.7001 213.734 58.5801 213.734 59.8001C213.734 61.5401 212.874 62.9601 211.114 63.6401C213.134 64.3201 213.714 65.6801 213.714 66.8601C213.714 69.5401 211.074 70.8801 208.434 70.8801C205.214 70.8801 203.154 69.2401 203.234 66.5001H205.294C205.234 68.0401 206.794 68.8601 208.434 68.8801C209.954 68.8801 211.574 68.2601 211.574 66.8601C211.574 65.4801 210.314 64.7201 208.474 64.7201C205.274 64.7201 203.134 62.8801 203.134 59.8001C203.134 56.5001 205.794 54.8401 208.474 54.8401C209.294 54.8401 210.434 55.0401 211.134 55.5201ZM208.474 56.7601C206.794 56.7601 205.214 57.7401 205.214 59.8001C205.214 61.7601 206.694 62.8201 208.474 62.8201C210.294 62.8201 211.674 61.5801 211.674 59.8001C211.674 57.8601 210.174 56.7601 208.474 56.7601Z" fill="#2B323B"/>
<rect x="680.422" y="355.993" width="163" height="60" rx="8" fill="#EE1B24" fill-opacity="0.4"/>
<path d="M739.106 392.593L739.346 392.993H736.726L732.466 388.153H729.506V392.993H727.266V378.973C729.446 378.973 731.606 378.993 733.786 378.993C737.026 378.993 738.726 381.213 738.726 383.573C738.726 385.573 737.686 387.533 734.926 387.933L739.106 392.593ZM733.786 381.033H729.506V386.113H733.766C735.626 386.113 736.446 384.933 736.446 383.613C736.446 382.353 735.626 381.033 733.786 381.033ZM750.352 388.833H742.352C742.532 390.333 743.772 391.313 745.572 391.313C746.572 391.313 747.832 390.933 748.432 390.253L749.772 391.553C748.752 392.673 747.052 393.233 745.532 393.233C742.292 393.233 740.212 391.173 740.212 388.013C740.212 385.013 742.312 382.873 745.392 382.873C748.572 382.873 750.732 384.813 750.352 388.833ZM742.392 387.093H748.372C748.252 385.533 747.112 384.713 745.452 384.713C743.952 384.713 742.712 385.533 742.392 387.093ZM758.438 383.113H760.218L762.578 390.873L765.018 383.113H767.318L763.858 393.033H761.458L760.298 389.753L759.338 386.313L758.358 389.753L757.198 393.033H754.798L751.318 383.113H753.638L756.078 390.873L758.438 383.113ZM773.358 382.933C776.398 382.933 778.478 385.173 778.478 388.073C778.478 390.993 776.458 393.193 773.358 393.193C770.278 393.193 768.278 390.993 768.278 388.073C768.278 385.173 770.298 382.933 773.358 382.933ZM773.358 384.833C771.478 384.833 770.338 386.333 770.338 388.073C770.338 389.833 771.478 391.273 773.358 391.273C775.258 391.273 776.398 389.833 776.398 388.073C776.398 386.333 775.158 384.833 773.358 384.833ZM780.656 383.133H782.576L782.716 384.433C783.436 383.173 784.556 382.913 785.616 382.913C786.576 382.913 787.496 383.253 788.056 383.753L787.116 385.553C786.616 385.153 786.136 384.953 785.376 384.953C783.956 384.953 782.716 385.833 782.716 387.653V392.993H780.656V383.133ZM789.464 379.013H791.544V387.173L795.204 383.133H797.704V383.253L793.444 387.773L798.284 392.853V392.993H795.764L791.544 388.433V392.993H789.464V379.013Z" fill="#2B323B"/>
<rect x="680.422" y="461.458" width="163" height="60" rx="8" fill="#ABEBD1"/>
<path d="M724.18 484.458H729.48C734.26 484.458 736.44 487.878 736.5 491.338C736.58 494.878 734.38 498.458 729.48 498.458C727.8 498.458 725.86 498.458 724.18 498.458V484.458ZM726.4 486.598V496.298H729.48C732.9 496.298 734.34 493.778 734.28 491.318C734.22 488.958 732.78 486.598 729.48 486.598H726.4ZM748.262 494.298H740.262C740.442 495.798 741.682 496.778 743.482 496.778C744.482 496.778 745.742 496.398 746.342 495.718L747.682 497.018C746.662 498.138 744.962 498.698 743.442 498.698C740.202 498.698 738.122 496.638 738.122 493.478C738.122 490.478 740.222 488.338 743.302 488.338C746.482 488.338 748.642 490.278 748.262 494.298ZM740.302 492.558H746.282C746.162 490.998 745.022 490.178 743.362 490.178C741.862 490.178 740.622 490.998 740.302 492.558ZM750.443 484.478H752.503V498.458H750.443V484.478ZM757.442 488.558V498.458H755.382V488.558H757.442ZM755.022 485.518C755.022 487.398 757.842 487.398 757.842 485.518C757.842 483.678 755.022 483.678 755.022 485.518ZM767.586 488.578H769.846L765.666 498.498H763.406L759.206 488.578H761.486L762.806 491.758L764.546 496.338L766.106 492.158L767.586 488.578ZM780.762 494.298H772.762C772.942 495.798 774.182 496.778 775.982 496.778C776.982 496.778 778.242 496.398 778.842 495.718L780.182 497.018C779.162 498.138 777.462 498.698 775.942 498.698C772.702 498.698 770.622 496.638 770.622 493.478C770.622 490.478 772.722 488.338 775.802 488.338C778.982 488.338 781.142 490.278 780.762 494.298ZM772.802 492.558H778.782C778.662 490.998 777.522 490.178 775.862 490.178C774.362 490.178 773.122 490.998 772.802 492.558ZM782.863 488.598H784.783L784.923 489.898C785.643 488.638 786.763 488.378 787.823 488.378C788.783 488.378 789.703 488.718 790.263 489.218L789.323 491.018C788.823 490.618 788.343 490.418 787.583 490.418C786.163 490.418 784.923 491.298 784.923 493.118V498.458H782.863V488.598ZM798.811 488.598H801.111L794.891 503.038H792.611L794.651 498.318L790.711 488.598H793.111L794.811 493.258L795.791 496.058L796.851 493.298L798.811 488.598Z" fill="#2B323B"/>
<rect y="119" width="235" height="72" rx="8" fill="#EE1B24" fill-opacity="0.4"/>
<path d="M54.1371 161.6L54.3771 162H51.7571L47.4971 157.16H44.5371V162H42.2971V147.98C44.4771 147.98 46.6371 148 48.8171 148C52.0571 148 53.7571 150.22 53.7571 152.58C53.7571 154.58 52.7171 156.54 49.9571 156.94L54.1371 161.6ZM48.8171 150.04H44.5371V155.12H48.7971C50.6571 155.12 51.4771 153.94 51.4771 152.62C51.4771 151.36 50.6571 150.04 48.8171 150.04ZM65.3834 157.84H57.3834C57.5634 159.34 58.8034 160.32 60.6034 160.32C61.6034 160.32 62.8634 159.94 63.4634 159.26L64.8034 160.56C63.7834 161.68 62.0834 162.24 60.5634 162.24C57.3234 162.24 55.2434 160.18 55.2434 157.02C55.2434 154.02 57.3434 151.88 60.4234 151.88C63.6034 151.88 65.7634 153.82 65.3834 157.84ZM57.4234 156.1H63.4034C63.2834 154.54 62.1434 153.72 60.4834 153.72C58.9834 153.72 57.7434 154.54 57.4234 156.1ZM68.584 149.52L70.664 149.3V152.16H73.544V153.94H70.644V158.64C70.644 159.68 71.104 160.26 72.064 160.26C72.464 160.26 72.924 160.12 73.324 159.92L73.924 161.68C73.244 161.98 72.644 162.12 71.944 162.12C69.804 162.18 68.584 160.96 68.584 158.64V153.94H66.684V152.16H68.584V149.52ZM75.4685 152.14H77.5285V157.42C77.5285 159.1 78.4885 160.26 80.2085 160.26C81.8285 160.26 82.9485 158.92 82.9485 157.28V152.14H85.0085V162.02H83.1485L83.0285 160.56C82.0685 161.66 81.0085 162.16 79.6285 162.16C77.2085 162.16 75.4685 160.42 75.4685 157.44V152.14ZM87.816 152.14H89.736L89.876 153.44C90.596 152.18 91.716 151.92 92.776 151.92C93.736 151.92 94.656 152.26 95.216 152.76L94.276 154.56C93.776 154.16 93.296 153.96 92.536 153.96C91.116 153.96 89.876 154.84 89.876 156.66V162H87.816V152.14ZM106.185 162H104.105V156.72C104.105 155.02 103.145 153.88 101.445 153.88C99.8046 153.88 98.6846 155.22 98.6846 156.84V162H96.6246V152.12H98.5046L98.6246 153.56C99.5646 152.5 100.665 151.98 101.945 151.98C104.345 151.98 106.185 153.68 106.185 156.7V162ZM122.632 162H120.552V156.58C120.552 155.12 119.712 153.9 118.252 153.9C116.792 153.9 115.872 155.12 115.872 156.58V162H113.812V152.12H115.732L115.872 153.44C116.432 152.36 117.592 151.96 118.632 151.96C119.892 151.96 121.172 152.48 121.732 153.94C122.532 152.48 123.772 151.98 125.112 151.98C127.832 151.98 129.292 153.7 129.292 156.54V162H127.212V156.54C127.212 155.08 126.492 153.92 125.032 153.92C123.572 153.92 122.632 155.12 122.632 156.58V162ZM139.817 153.7L139.877 152.14H141.877C141.877 155.42 141.877 158.72 141.877 162H139.917L139.817 160.4C139.157 161.66 137.637 162.26 136.417 162.26C133.537 162.28 131.357 160.42 131.357 157.06C131.357 153.76 133.617 151.92 136.457 151.92C137.857 151.92 139.197 152.58 139.817 153.7ZM136.617 153.8C134.857 153.8 133.417 155.04 133.417 157.06C133.417 159.1 134.857 160.34 136.617 160.34C140.877 160.34 140.877 153.8 136.617 153.8ZM145.771 149.52L147.851 149.3V152.16H150.731V153.94H147.831V158.64C147.831 159.68 148.291 160.26 149.251 160.26C149.651 160.26 150.111 160.12 150.511 159.92L151.111 161.68C150.431 161.98 149.831 162.12 149.131 162.12C146.991 162.18 145.771 160.96 145.771 158.64V153.94H143.871V152.16H145.771V149.52ZM162.356 157.84H154.356C154.536 159.34 155.776 160.32 157.576 160.32C158.576 160.32 159.836 159.94 160.436 159.26L161.776 160.56C160.756 161.68 159.056 162.24 157.536 162.24C154.296 162.24 152.216 160.18 152.216 157.02C152.216 154.02 154.316 151.88 157.396 151.88C160.576 151.88 162.736 153.82 162.356 157.84ZM154.396 156.1H160.376C160.256 154.54 159.116 153.72 157.456 153.72C155.956 153.72 154.716 154.54 154.396 156.1ZM164.457 152.14H166.377L166.517 153.44C167.237 152.18 168.357 151.92 169.417 151.92C170.377 151.92 171.297 152.26 171.857 152.76L170.917 154.56C170.417 154.16 169.937 153.96 169.177 153.96C167.757 153.96 166.517 154.84 166.517 156.66V162H164.457V152.14ZM175.325 152.1V162H173.265V152.1H175.325ZM172.905 149.06C172.905 150.94 175.725 150.94 175.725 149.06C175.725 147.22 172.905 147.22 172.905 149.06ZM185.989 153.7L186.049 152.14H188.049C188.049 155.42 188.049 158.72 188.049 162H186.089L185.989 160.4C185.329 161.66 183.809 162.26 182.589 162.26C179.709 162.28 177.529 160.42 177.529 157.06C177.529 153.76 179.789 151.92 182.629 151.92C184.029 151.92 185.369 152.58 185.989 153.7ZM182.789 153.8C181.029 153.8 179.589 155.04 179.589 157.06C179.589 159.1 181.029 160.34 182.789 160.34C187.049 160.34 187.049 153.8 182.789 153.8ZM190.923 148.02H192.983V162H190.923V148.02Z" fill="#2B323B"/>
<rect y="221" width="235" height="72" rx="8" fill="white"/>
<rect x="0.5" y="221.5" width="234" height="71" rx="7.5" stroke="#2B323B" stroke-opacity="0.08"/>
<path d="M83.4531 252.04V257.64H87.6931C91.3931 257.64 91.3731 252.04 87.6931 252.04H83.4531ZM87.6931 259.7H83.4531V264H81.2131V250C83.3531 250 85.5531 249.98 87.6931 249.98C94.3731 249.98 94.3931 259.66 87.6931 259.7ZM102.287 255.7L102.347 254.14H104.347C104.347 257.42 104.347 260.72 104.347 264H102.387L102.287 262.4C101.627 263.66 100.107 264.26 98.8873 264.26C96.0073 264.28 93.8273 262.42 93.8273 259.06C93.8273 255.76 96.0873 253.92 98.9273 253.92C100.327 253.92 101.667 254.58 102.287 255.7ZM99.0873 255.8C97.3273 255.8 95.8873 257.04 95.8873 259.06C95.8873 261.1 97.3273 262.34 99.0873 262.34C103.347 262.34 103.347 255.8 99.0873 255.8ZM114.082 261.34L115.482 262.72C114.382 263.8 113.162 264.26 111.742 264.26C108.902 264.26 106.542 262.48 106.542 259.08C106.542 255.68 108.882 253.9 111.742 253.9C113.102 253.9 114.242 254.32 115.302 255.36L113.982 256.74C113.362 256.14 112.542 255.86 111.762 255.86C109.982 255.86 108.602 257.12 108.602 259.08C108.602 261.16 110.042 262.26 111.742 262.26C112.582 262.26 113.442 262 114.082 261.34ZM117.318 250.02H119.398V258.18L123.058 254.14H125.558V254.26L121.298 258.78L126.138 263.86V264H123.618L119.398 259.44V264H117.318V250.02ZM129.651 254.1V264H127.591V254.1H129.651ZM127.231 251.06C127.231 252.94 130.051 252.94 130.051 251.06C130.051 249.22 127.231 249.22 127.231 251.06ZM142.015 264H139.935V258.72C139.935 257.02 138.975 255.88 137.275 255.88C135.635 255.88 134.515 257.22 134.515 258.84V264H132.455V254.12H134.335L134.455 255.56C135.395 254.5 136.495 253.98 137.775 253.98C140.175 253.98 142.015 255.68 142.015 258.7V264ZM152.062 254.52L153.142 253.2L154.642 254.36L153.462 255.74C154.282 256.7 154.662 257.58 154.662 258.8C154.662 260.54 153.802 261.96 152.042 262.64C154.062 263.32 154.642 264.68 154.642 265.86C154.642 268.54 152.002 269.88 149.362 269.88C146.142 269.88 144.082 268.24 144.162 265.5H146.222C146.162 267.04 147.722 267.86 149.362 267.88C150.882 267.88 152.502 267.26 152.502 265.86C152.502 264.48 151.242 263.72 149.402 263.72C146.202 263.72 144.062 261.88 144.062 258.8C144.062 255.5 146.722 253.84 149.402 253.84C150.222 253.84 151.362 254.04 152.062 254.52ZM149.402 255.76C147.722 255.76 146.142 256.74 146.142 258.8C146.142 260.76 147.622 261.82 149.402 261.82C151.222 261.82 152.602 260.58 152.602 258.8C152.602 256.86 151.102 255.76 149.402 255.76Z" fill="#2B323B"/>
<path d="M427.306 1.4461C429.605 0.261764 432.335 0.261764 434.633 1.4461L530.606 50.8883C536.388 53.8668 536.388 62.1332 530.606 65.1117L434.633 114.554C432.334 115.738 429.605 115.738 427.306 114.554L331.333 65.1118C325.551 62.1333 325.551 53.8668 331.333 50.8883L427.306 1.4461Z" fill="white"/>
<path d="M427.535 1.89058C429.69 0.780269 432.249 0.780269 434.405 1.89058L530.377 51.3327C535.798 54.1251 535.798 61.8749 530.377 64.6673L434.404 114.109C432.249 115.22 429.69 115.22 427.535 114.109L331.562 64.6673C326.142 61.8749 326.142 54.1252 331.562 51.3328L427.535 1.89058Z" stroke="#2B323B" stroke-opacity="0.08"/>
<path d="M385.282 53H383.062V39H385.282V53ZM397.906 53H395.826V47.72C395.826 46.02 394.866 44.88 393.166 44.88C391.526 44.88 390.406 46.22 390.406 47.84V53H388.346V43.12H390.226L390.346 44.56C391.286 43.5 392.386 42.98 393.666 42.98C396.066 42.98 397.906 44.68 397.906 47.7V53ZM408.013 44.2L406.853 45.56C406.073 44.84 405.233 44.64 404.253 44.64C402.993 44.62 402.153 45.04 402.153 45.82C402.173 46.64 403.033 46.96 404.293 47.08C406.113 47.24 408.493 47.64 408.473 50.18C408.453 52.02 406.833 53.3 404.273 53.3C402.673 53.3 401.073 52.94 399.773 51.48L400.853 50.02C401.773 51.04 403.153 51.46 404.313 51.48C405.293 51.48 406.393 51.12 406.413 50.2C406.433 49.32 405.593 48.98 404.133 48.84C402.273 48.66 400.133 48.06 400.113 45.88C400.113 43.7 402.373 42.88 404.213 42.88C405.733 42.88 406.913 43.22 408.013 44.2ZM415.874 51.22C417.674 51.22 418.994 49.92 418.994 48.08C418.994 46.22 417.754 44.94 415.874 44.94C413.974 44.94 412.774 46.32 412.774 48.08C412.774 49.84 414.074 51.22 415.874 51.22ZM412.594 57.58H410.534V43.14H412.474L412.594 44.74C413.354 43.54 414.754 42.94 416.074 42.94C419.014 42.96 421.054 45.1 421.054 48.08C421.054 51.06 419.134 53.22 416.074 53.22C414.874 53.22 413.334 52.78 412.594 51.56V57.58ZM432.789 48.84H424.789C424.969 50.34 426.209 51.32 428.009 51.32C429.009 51.32 430.269 50.94 430.869 50.26L432.209 51.56C431.189 52.68 429.489 53.24 427.969 53.24C424.729 53.24 422.649 51.18 422.649 48.02C422.649 45.02 424.749 42.88 427.829 42.88C431.009 42.88 433.169 44.82 432.789 48.84ZM424.829 47.1H430.809C430.689 45.54 429.549 44.72 427.889 44.72C426.389 44.72 425.149 45.54 424.829 47.1ZM441.829 50.34L443.229 51.72C442.129 52.8 440.909 53.26 439.489 53.26C436.649 53.26 434.289 51.48 434.289 48.08C434.289 44.68 436.629 42.9 439.489 42.9C440.849 42.9 441.989 43.32 443.049 44.36L441.729 45.74C441.109 45.14 440.289 44.86 439.509 44.86C437.729 44.86 436.349 46.12 436.349 48.08C436.349 50.16 437.789 51.26 439.489 51.26C440.329 51.26 441.189 51 441.829 50.34ZM446.165 40.52L448.245 40.3V43.16H451.125V44.94H448.225V49.64C448.225 50.68 448.685 51.26 449.645 51.26C450.045 51.26 450.505 51.12 450.905 50.92L451.505 52.68C450.825 52.98 450.225 53.12 449.525 53.12C447.385 53.18 446.165 51.96 446.165 49.64V44.94H444.265V43.16H446.165V40.52ZM455.27 43.1V53H453.21V43.1H455.27ZM452.85 40.06C452.85 41.94 455.67 41.94 455.67 40.06C455.67 38.22 452.85 38.22 452.85 40.06ZM462.533 42.94C465.573 42.94 467.653 45.18 467.653 48.08C467.653 51 465.633 53.2 462.533 53.2C459.453 53.2 457.453 51 457.453 48.08C457.453 45.18 459.473 42.94 462.533 42.94ZM462.533 44.84C460.653 44.84 459.513 46.34 459.513 48.08C459.513 49.84 460.653 51.28 462.533 51.28C464.433 51.28 465.573 49.84 465.573 48.08C465.573 46.34 464.333 44.84 462.533 44.84ZM479.391 53H477.311V47.72C477.311 46.02 476.351 44.88 474.651 44.88C473.011 44.88 471.891 46.22 471.891 47.84V53H469.831V43.12H471.711L471.831 44.56C472.771 43.5 473.871 42.98 475.151 42.98C477.551 42.98 479.391 44.68 479.391 47.7V53ZM410.76 74.8V78.92H414.96C416.2 78.92 417.92 78.52 417.92 76.98C417.92 75.48 416.26 74.8 414.98 74.8C413.56 74.8 412.18 74.8 410.76 74.8ZM410.76 69.02V72.8H414.98C416.66 72.8 417.5 72.14 417.5 71.04C417.5 70.06 416.64 69.02 414.96 69.02H410.76ZM408.54 67H414.96C417.62 67 419.72 68.22 419.72 71C419.72 72.18 419.1 73.24 417.78 73.78C419.46 74.28 420.16 75.94 420.16 77C420.16 80.06 417.72 81 414.96 81C412.78 81 410.72 81 408.54 81V67ZM429.197 66.74C433.977 66.76 436.317 70.28 436.317 74.06C436.317 77.84 434.017 81.3 429.157 81.3C424.297 81.3 421.997 77.76 421.997 74.08C421.997 69.82 424.977 66.74 429.197 66.74ZM424.217 74.1C424.257 76.58 425.697 79.24 429.157 79.24C432.637 79.24 434.097 76.78 434.097 74.1C434.097 71.52 432.617 68.84 429.197 68.78C425.957 68.78 424.217 71.04 424.217 74.1ZM451.15 81.02V70.28L446.39 76.9H445.91L441.21 70.28V81.02H438.97V67.02C439.85 67.02 440.67 67.02 441.57 67.02L446.19 73.58L450.79 67.02H453.39V81.02H451.15Z" fill="#2B323B"/>
<path d="M314.735 58.7072C315.126 58.3166 315.126 57.6835 314.735 57.293L308.371 50.929C307.981 50.5385 307.348 50.5385 306.957 50.929C306.567 51.3195 306.567 51.9527 306.957 52.3432L312.614 58.0001L306.957 63.6569C306.567 64.0474 306.567 64.6806 306.957 65.0711C307.348 65.4617 307.981 65.4617 308.371 65.0711L314.735 58.7072ZM238.5 59.0001H314.028V57.0001H238.5V59.0001Z" fill="#2B323B"/>
<path d="M348.459 154C347.907 154 347.459 154.448 347.459 155C347.459 155.552 347.907 156 348.459 156V154ZM311.459 156C312.012 156 312.459 155.552 312.459 155C312.459 154.448 312.012 154 311.459 154V156ZM237.793 154.293C237.402 154.683 237.402 155.317 237.793 155.707L244.157 162.071C244.547 162.462 245.181 162.462 245.571 162.071C245.962 161.681 245.962 161.047 245.571 160.657L239.914 155L245.571 149.343C245.962 148.953 245.962 148.319 245.571 147.929C245.181 147.538 244.547 147.538 244.157 147.929L237.793 154.293ZM429.97 119.941V131H431.97V119.941H429.97ZM406.97 154H348.459V156H406.97V154ZM311.459 154H238.5V156H311.459V154ZM429.97 131C429.97 143.703 419.672 154 406.97 154V156C420.777 156 431.97 144.807 431.97 131H429.97Z" fill="#EE1B24"/>
<path d="M329.921 149.364V161H328.307L322.393 152.466H322.285V161H320.529V149.364H322.154L328.074 157.909H328.182V149.364H329.921ZM335.846 161.176C335.028 161.176 334.314 160.989 333.704 160.614C333.094 160.239 332.621 159.714 332.283 159.04C331.946 158.366 331.778 157.578 331.778 156.676C331.778 155.771 331.946 154.979 332.283 154.301C332.621 153.623 333.094 153.097 333.704 152.722C334.314 152.347 335.028 152.159 335.846 152.159C336.664 152.159 337.378 152.347 337.988 152.722C338.598 153.097 339.071 153.623 339.408 154.301C339.746 154.979 339.914 155.771 339.914 156.676C339.914 157.578 339.746 158.366 339.408 159.04C339.071 159.714 338.598 160.239 337.988 160.614C337.378 160.989 336.664 161.176 335.846 161.176ZM335.852 159.75C336.382 159.75 336.821 159.61 337.17 159.33C337.518 159.049 337.776 158.676 337.942 158.21C338.113 157.744 338.198 157.231 338.198 156.671C338.198 156.114 338.113 155.602 337.942 155.136C337.776 154.667 337.518 154.29 337.17 154.006C336.821 153.722 336.382 153.58 335.852 153.58C335.317 153.58 334.874 153.722 334.522 154.006C334.174 154.29 333.914 154.667 333.744 155.136C333.577 155.602 333.494 156.114 333.494 156.671C333.494 157.231 333.577 157.744 333.744 158.21C333.914 158.676 334.174 159.049 334.522 159.33C334.874 159.61 335.317 159.75 335.852 159.75Z" fill="#EE1B24"/>
<path d="M427.306 200.446C429.605 199.262 432.335 199.262 434.633 200.446L530.606 249.888C536.388 252.867 536.388 261.133 530.606 264.112L434.633 313.554C432.334 314.738 429.605 314.738 427.306 313.554L331.333 264.112C325.551 261.133 325.551 252.867 331.333 249.888L427.306 200.446Z" fill="white"/>
<path d="M427.535 200.891C429.69 199.78 432.249 199.78 434.405 200.891L530.377 250.333C535.798 253.125 535.798 260.875 530.377 263.667L434.404 313.109C432.249 314.22 429.69 314.22 427.535 313.109L331.562 263.667C326.142 260.875 326.142 253.125 331.562 250.333L427.535 200.891Z" stroke="#2B323B" stroke-opacity="0.08"/>
<path d="M413.622 262H411.382V248.02H421.282V250.2H413.622V254.46H420.902V256.54H413.622V262ZM430.202 247.7C435.062 247.7 437.302 251.22 437.342 254.86C437.362 256.5 436.902 258.18 435.962 259.48L437.642 261.14L436.082 262.72L434.362 261.04C433.282 261.8 431.882 262.22 430.202 262.22C425.262 262.22 423.022 258.66 423.022 254.96C423.022 251.28 425.342 247.7 430.202 247.7ZM430.202 249.74C426.822 249.74 425.202 252.38 425.242 255C425.262 257.56 426.902 260.14 430.202 260.14C433.562 260.14 435.202 257.42 435.122 254.8C435.062 252.28 433.662 249.74 430.202 249.74ZM450.255 258.66L451.795 260.2C450.355 261.62 448.495 262.28 446.535 262.28C441.455 262.28 439.175 258.78 439.155 255.1C439.135 251.42 441.535 247.76 446.535 247.76C448.415 247.76 450.235 248.46 451.655 249.88L450.155 251.32C449.155 250.34 447.835 249.88 446.535 249.88C442.975 249.88 441.355 252.5 441.375 255.08C441.395 257.64 442.915 260.18 446.535 260.18C447.835 260.18 449.275 259.64 450.255 258.66Z" fill="#2B323B"/>
<path d="M429.97 366.494C429.97 367.046 430.417 367.494 430.97 367.494C431.522 367.494 431.97 367.046 431.97 366.494H429.97ZM454.267 384.994C453.714 384.994 453.267 385.441 453.267 385.994C453.267 386.546 453.714 386.994 454.267 386.994V384.994ZM677.629 386.701C678.02 386.31 678.02 385.677 677.629 385.286L671.265 378.922C670.875 378.532 670.241 378.532 669.851 378.922C669.46 379.313 669.46 379.946 669.851 380.337L675.508 385.994L669.851 391.65C669.46 392.041 669.46 392.674 669.851 393.065C670.241 393.455 670.875 393.455 671.265 393.065L677.629 386.701ZM429.97 318.941V366.494H431.97V318.941H429.97ZM454.267 386.994H676.922V384.994H454.267V386.994Z" fill="#EE1B24"/>
<path d="M237.793 256.293C237.402 256.683 237.402 257.317 237.793 257.707L244.157 264.071C244.547 264.462 245.181 264.462 245.571 264.071C245.962 263.681 245.962 263.047 245.571 262.657L239.914 257L245.571 251.343C245.962 250.953 245.962 250.319 245.571 249.929C245.181 249.538 244.547 249.538 244.157 249.929L237.793 256.293ZM314.028 256H238.5V258H314.028V256Z" fill="#2B323B"/>
<rect x="625.5" y="1.5" width="587" height="318" rx="10.5" stroke="#ABEBD1" stroke-opacity="0.8" stroke-width="3" stroke-dasharray="8 3"/>
<rect x="650.922" y="28" width="222" height="72" rx="8" fill="white"/>
<rect x="651.422" y="28.5" width="221" height="71" rx="7.5" stroke="#2B323B" stroke-opacity="0.08"/>
<path d="M699.807 71.02V60.28L695.047 66.9H694.567L689.867 60.28V71.02H687.627V57.02C688.507 57.02 689.327 57.02 690.227 57.02L694.847 63.58L699.447 57.02H702.047V71.02H699.807ZM712.842 62.7L712.902 61.14H714.902C714.902 64.42 714.902 67.72 714.902 71H712.942L712.842 69.4C712.182 70.66 710.662 71.26 709.442 71.26C706.562 71.28 704.382 69.42 704.382 66.06C704.382 62.76 706.642 60.92 709.482 60.92C710.882 60.92 712.222 61.58 712.842 62.7ZM709.642 62.8C707.882 62.8 706.442 64.04 706.442 66.06C706.442 68.1 707.882 69.34 709.642 69.34C713.902 69.34 713.902 62.8 709.642 62.8ZM718.797 58.52L720.877 58.3V61.16H723.757V62.94H720.857V67.64C720.857 68.68 721.317 69.26 722.277 69.26C722.677 69.26 723.137 69.12 723.537 68.92L724.137 70.68C723.457 70.98 722.857 71.12 722.157 71.12C720.017 71.18 718.797 69.96 718.797 67.64V62.94H716.897V61.16H718.797V58.52ZM735.381 66.84H727.381C727.561 68.34 728.801 69.32 730.601 69.32C731.601 69.32 732.861 68.94 733.461 68.26L734.801 69.56C733.781 70.68 732.081 71.24 730.561 71.24C727.321 71.24 725.241 69.18 725.241 66.02C725.241 63.02 727.341 60.88 730.421 60.88C733.601 60.88 735.761 62.82 735.381 66.84ZM727.421 65.1H733.401C733.281 63.54 732.141 62.72 730.481 62.72C728.981 62.72 727.741 63.54 727.421 65.1ZM737.482 61.14H739.402L739.542 62.44C740.262 61.18 741.382 60.92 742.442 60.92C743.402 60.92 744.322 61.26 744.882 61.76L743.942 63.56C743.442 63.16 742.962 62.96 742.202 62.96C740.782 62.96 739.542 63.84 739.542 65.66V71H737.482V61.14ZM748.351 61.1V71H746.291V61.1H748.351ZM745.931 58.06C745.931 59.94 748.751 59.94 748.751 58.06C748.751 56.22 745.931 56.22 745.931 58.06ZM759.014 62.7L759.074 61.14H761.074C761.074 64.42 761.074 67.72 761.074 71H759.114L759.014 69.4C758.354 70.66 756.834 71.26 755.614 71.26C752.734 71.28 750.554 69.42 750.554 66.06C750.554 62.76 752.814 60.92 755.654 60.92C757.054 60.92 758.394 61.58 759.014 62.7ZM755.814 62.8C754.054 62.8 752.614 64.04 752.614 66.06C752.614 68.1 754.054 69.34 755.814 69.34C760.074 69.34 760.074 62.8 755.814 62.8ZM763.949 57.02H766.009V71H763.949V57.02ZM781.329 62.2L780.169 63.56C779.389 62.84 778.549 62.64 777.569 62.64C776.309 62.62 775.469 63.04 775.469 63.82C775.489 64.64 776.349 64.96 777.609 65.08C779.429 65.24 781.809 65.64 781.789 68.18C781.769 70.02 780.149 71.3 777.589 71.3C775.989 71.3 774.389 70.94 773.089 69.48L774.169 68.02C775.089 69.04 776.469 69.46 777.629 69.48C778.609 69.48 779.709 69.12 779.729 68.2C779.749 67.32 778.909 66.98 777.449 66.84C775.589 66.66 773.449 66.06 773.429 63.88C773.429 61.7 775.689 60.88 777.529 60.88C779.049 60.88 780.229 61.22 781.329 62.2ZM783.929 57.02H785.989V71H783.929V57.02ZM790.929 61.1V71H788.869V61.1H790.929ZM788.509 58.06C788.509 59.94 791.329 59.94 791.329 58.06C791.329 56.22 788.509 56.22 788.509 58.06ZM794.832 58.52L796.912 58.3V61.16H799.792V62.94H796.892V67.64C796.892 68.68 797.352 69.26 798.312 69.26C798.712 69.26 799.172 69.12 799.572 68.92L800.172 70.68C799.492 70.98 798.892 71.12 798.192 71.12C796.052 71.18 794.832 69.96 794.832 67.64V62.94H792.932V61.16H794.832V58.52ZM802.977 58.52L805.057 58.3V61.16H807.937V62.94H805.037V67.64C805.037 68.68 805.497 69.26 806.457 69.26C806.857 69.26 807.317 69.12 807.717 68.92L808.317 70.68C807.637 70.98 807.037 71.12 806.337 71.12C804.197 71.18 802.977 69.96 802.977 67.64V62.94H801.077V61.16H802.977V58.52ZM812.081 61.1V71H810.021V61.1H812.081ZM809.661 58.06C809.661 59.94 812.481 59.94 812.481 58.06C812.481 56.22 809.661 56.22 809.661 58.06ZM824.444 71H822.364V65.72C822.364 64.02 821.404 62.88 819.704 62.88C818.064 62.88 816.944 64.22 816.944 65.84V71H814.884V61.12H816.764L816.884 62.56C817.824 61.5 818.924 60.98 820.204 60.98C822.604 60.98 824.444 62.68 824.444 65.7V71ZM834.491 61.52L835.571 60.2L837.071 61.36L835.891 62.74C836.711 63.7 837.091 64.58 837.091 65.8C837.091 67.54 836.231 68.96 834.471 69.64C836.491 70.32 837.071 71.68 837.071 72.86C837.071 75.54 834.431 76.88 831.791 76.88C828.571 76.88 826.511 75.24 826.591 72.5H828.651C828.591 74.04 830.151 74.86 831.791 74.88C833.311 74.88 834.931 74.26 834.931 72.86C834.931 71.48 833.671 70.72 831.831 70.72C828.631 70.72 826.491 68.88 826.491 65.8C826.491 62.5 829.151 60.84 831.831 60.84C832.651 60.84 833.791 61.04 834.491 61.52ZM831.831 62.76C830.151 62.76 828.571 63.74 828.571 65.8C828.571 67.76 830.051 68.82 831.831 68.82C833.651 68.82 835.031 67.58 835.031 65.8C835.031 63.86 833.531 62.76 831.831 62.76Z" fill="#2B323B"/>
<rect x="965" y="28" width="222" height="72" rx="8" fill="white"/>
<rect x="965.5" y="28.5" width="221" height="71" rx="7.5" stroke="#2B323B" stroke-opacity="0.08"/>
<path d="M1036.59 67.66L1038.13 69.2C1036.69 70.62 1034.83 71.28 1032.87 71.28C1027.79 71.28 1025.51 67.78 1025.49 64.1C1025.47 60.42 1027.87 56.76 1032.87 56.76C1034.75 56.76 1036.57 57.46 1037.99 58.88L1036.49 60.32C1035.49 59.34 1034.17 58.88 1032.87 58.88C1029.31 58.88 1027.69 61.5 1027.71 64.08C1027.73 66.64 1029.25 69.18 1032.87 69.18C1034.17 69.18 1035.61 68.64 1036.59 67.66ZM1044.26 60.94C1047.3 60.94 1049.38 63.18 1049.38 66.08C1049.38 69 1047.36 71.2 1044.26 71.2C1041.18 71.2 1039.18 69 1039.18 66.08C1039.18 63.18 1041.2 60.94 1044.26 60.94ZM1044.26 62.84C1042.38 62.84 1041.24 64.34 1041.24 66.08C1041.24 67.84 1042.38 69.28 1044.26 69.28C1046.16 69.28 1047.3 67.84 1047.3 66.08C1047.3 64.34 1046.06 62.84 1044.26 62.84ZM1060.38 71H1058.3V65.58C1058.3 64.12 1057.46 62.9 1056 62.9C1054.54 62.9 1053.62 64.12 1053.62 65.58V71H1051.56V61.12H1053.48L1053.62 62.44C1054.18 61.36 1055.34 60.96 1056.38 60.96C1057.64 60.96 1058.92 61.48 1059.48 62.94C1060.28 61.48 1061.52 60.98 1062.86 60.98C1065.58 60.98 1067.04 62.7 1067.04 65.54V71H1064.96V65.54C1064.96 64.08 1064.24 62.92 1062.78 62.92C1061.32 62.92 1060.38 64.12 1060.38 65.58V71ZM1075.04 69.22C1076.84 69.22 1078.16 67.92 1078.16 66.08C1078.16 64.22 1076.92 62.94 1075.04 62.94C1073.14 62.94 1071.94 64.32 1071.94 66.08C1071.94 67.84 1073.24 69.22 1075.04 69.22ZM1071.76 75.58H1069.7V61.14H1071.64L1071.76 62.74C1072.52 61.54 1073.92 60.94 1075.24 60.94C1078.18 60.96 1080.22 63.1 1080.22 66.08C1080.22 69.06 1078.3 71.22 1075.24 71.22C1074.04 71.22 1072.5 70.78 1071.76 69.56V75.58ZM1086.88 60.94C1089.92 60.94 1092 63.18 1092 66.08C1092 69 1089.98 71.2 1086.88 71.2C1083.8 71.2 1081.8 69 1081.8 66.08C1081.8 63.18 1083.82 60.94 1086.88 60.94ZM1086.88 62.84C1085 62.84 1083.86 64.34 1083.86 66.08C1083.86 67.84 1085 69.28 1086.88 69.28C1088.78 69.28 1089.92 67.84 1089.92 66.08C1089.92 64.34 1088.68 62.84 1086.88 62.84ZM1101.64 62.2L1100.48 63.56C1099.7 62.84 1098.86 62.64 1097.88 62.64C1096.62 62.62 1095.78 63.04 1095.78 63.82C1095.8 64.64 1096.66 64.96 1097.92 65.08C1099.74 65.24 1102.12 65.64 1102.1 68.18C1102.08 70.02 1100.46 71.3 1097.9 71.3C1096.3 71.3 1094.7 70.94 1093.4 69.48L1094.48 68.02C1095.4 69.04 1096.78 69.46 1097.94 69.48C1098.92 69.48 1100.02 69.12 1100.04 68.2C1100.06 67.32 1099.22 66.98 1097.76 66.84C1095.9 66.66 1093.76 66.06 1093.74 63.88C1093.74 61.7 1096 60.88 1097.84 60.88C1099.36 60.88 1100.54 61.22 1101.64 62.2ZM1106.22 61.1V71H1104.16V61.1H1106.22ZM1103.8 58.06C1103.8 59.94 1106.62 59.94 1106.62 58.06C1106.62 56.22 1103.8 56.22 1103.8 58.06ZM1110.12 58.52L1112.2 58.3V61.16H1115.08V62.94H1112.18V67.64C1112.18 68.68 1112.64 69.26 1113.6 69.26C1114 69.26 1114.46 69.12 1114.86 68.92L1115.46 70.68C1114.78 70.98 1114.18 71.12 1113.48 71.12C1111.34 71.18 1110.12 69.96 1110.12 67.64V62.94H1108.22V61.16H1110.12V58.52ZM1126.71 66.84H1118.71C1118.89 68.34 1120.13 69.32 1121.93 69.32C1122.93 69.32 1124.19 68.94 1124.79 68.26L1126.13 69.56C1125.11 70.68 1123.41 71.24 1121.89 71.24C1118.65 71.24 1116.57 69.18 1116.57 66.02C1116.57 63.02 1118.67 60.88 1121.75 60.88C1124.93 60.88 1127.09 62.82 1126.71 66.84ZM1118.75 65.1H1124.73C1124.61 63.54 1123.47 62.72 1121.81 62.72C1120.31 62.72 1119.07 63.54 1118.75 65.1Z" fill="#2B323B"/>
<path d="M962.207 64.7071C962.598 64.3166 962.598 63.6834 962.207 63.2929L955.843 56.9289C955.453 56.5384 954.819 56.5384 954.429 56.9289C954.038 57.3195 954.038 57.9526 954.429 58.3431L960.086 64L954.429 69.6569C954.038 70.0474 954.038 70.6805 954.429 71.0711C954.819 71.4616 955.453 71.4616 955.843 71.0711L962.207 64.7071ZM876.422 65H961.5V63H876.422V65Z" fill="#2B323B"/>
<rect x="965" y="220.883" width="222" height="72" rx="8" fill="#B6F2FF"/>
<path d="M1025.58 249.883H1030.88C1035.66 249.883 1037.84 253.303 1037.9 256.763C1037.98 260.303 1035.78 263.883 1030.88 263.883C1029.2 263.883 1027.26 263.883 1025.58 263.883V249.883ZM1027.8 252.023V261.723H1030.88C1034.3 261.723 1035.74 259.203 1035.68 256.743C1035.62 254.383 1034.18 252.023 1030.88 252.023H1027.8ZM1042.15 253.983V263.883H1040.09V253.983H1042.15ZM1039.73 250.943C1039.73 252.823 1042.55 252.823 1042.55 250.943C1042.55 249.103 1039.73 249.103 1039.73 250.943ZM1054.49 259.723H1046.49C1046.67 261.223 1047.91 262.203 1049.71 262.203C1050.71 262.203 1051.97 261.823 1052.57 261.143L1053.91 262.443C1052.89 263.563 1051.19 264.123 1049.67 264.123C1046.43 264.123 1044.35 262.063 1044.35 258.903C1044.35 255.903 1046.45 253.763 1049.53 253.763C1052.71 253.763 1054.87 255.703 1054.49 259.723ZM1046.53 257.983H1052.51C1052.39 256.423 1051.25 255.603 1049.59 255.603C1048.09 255.603 1046.85 256.423 1046.53 257.983ZM1068.51 261.223L1069.91 262.603C1068.81 263.683 1067.59 264.143 1066.17 264.143C1063.33 264.143 1060.97 262.363 1060.97 258.963C1060.97 255.563 1063.31 253.783 1066.17 253.783C1067.53 253.783 1068.67 254.203 1069.73 255.243L1068.41 256.623C1067.79 256.023 1066.97 255.743 1066.19 255.743C1064.41 255.743 1063.03 257.003 1063.03 258.963C1063.03 261.043 1064.47 262.143 1066.17 262.143C1067.01 262.143 1067.87 261.883 1068.51 261.223ZM1071.59 254.023H1073.65V259.303C1073.65 260.983 1074.61 262.143 1076.33 262.143C1077.95 262.143 1079.07 260.803 1079.07 259.163V254.023H1081.13V263.903H1079.27L1079.15 262.443C1078.19 263.543 1077.13 264.043 1075.75 264.043C1073.33 264.043 1071.59 262.303 1071.59 259.323V254.023ZM1085.03 251.403L1087.11 251.183V254.043H1089.99V255.823H1087.09V260.523C1087.09 261.563 1087.55 262.143 1088.51 262.143C1088.91 262.143 1089.37 262.003 1089.77 261.803L1090.37 263.563C1089.69 263.863 1089.09 264.003 1088.39 264.003C1086.25 264.063 1085.03 262.843 1085.03 260.523V255.823H1083.13V254.043H1085.03V251.403ZM1093.18 251.403L1095.26 251.183V254.043H1098.14V255.823H1095.24V260.523C1095.24 261.563 1095.7 262.143 1096.66 262.143C1097.06 262.143 1097.52 262.003 1097.92 261.803L1098.52 263.563C1097.84 263.863 1097.24 264.003 1096.54 264.003C1094.4 264.063 1093.18 262.843 1093.18 260.523V255.823H1091.28V254.043H1093.18V251.403ZM1102.28 253.983V263.883H1100.22V253.983H1102.28ZM1099.86 250.943C1099.86 252.823 1102.68 252.823 1102.68 250.943C1102.68 249.103 1099.86 249.103 1099.86 250.943ZM1114.65 263.883H1112.57V258.603C1112.57 256.903 1111.61 255.763 1109.91 255.763C1108.27 255.763 1107.15 257.103 1107.15 258.723V263.883H1105.09V254.003H1106.97L1107.09 255.443C1108.03 254.383 1109.13 253.863 1110.41 253.863C1112.81 253.863 1114.65 255.563 1114.65 258.583V263.883ZM1124.69 254.403L1125.77 253.083L1127.27 254.243L1126.09 255.623C1126.91 256.583 1127.29 257.463 1127.29 258.683C1127.29 260.423 1126.43 261.843 1124.67 262.523C1126.69 263.203 1127.27 264.563 1127.27 265.743C1127.27 268.423 1124.63 269.763 1121.99 269.763C1118.77 269.763 1116.71 268.123 1116.79 265.383H1118.85C1118.79 266.923 1120.35 267.743 1121.99 267.763C1123.51 267.763 1125.13 267.143 1125.13 265.743C1125.13 264.363 1123.87 263.603 1122.03 263.603C1118.83 263.603 1116.69 261.763 1116.69 258.683C1116.69 255.383 1119.35 253.723 1122.03 253.723C1122.85 253.723 1123.99 253.923 1124.69 254.403ZM1122.03 255.643C1120.35 255.643 1118.77 256.623 1118.77 258.683C1118.77 260.643 1120.25 261.703 1122.03 261.703C1123.85 261.703 1125.23 260.463 1125.23 258.683C1125.23 256.743 1123.73 255.643 1122.03 255.643Z" fill="#2B323B"/>
<path d="M1075.29 218.09C1075.68 218.48 1076.32 218.48 1076.71 218.09L1083.07 211.726C1083.46 211.335 1083.46 210.702 1083.07 210.312C1082.68 209.921 1082.05 209.921 1081.66 210.312L1076 215.968L1070.34 210.312C1069.95 209.921 1069.32 209.921 1068.93 210.312C1068.54 210.702 1068.54 211.335 1068.93 211.726L1075.29 218.09ZM1075 103.5V217.383H1077V103.5H1075Z" fill="#2B323B"/>
<rect x="650.922" y="221" width="222" height="72" rx="8" fill="white"/>
<rect x="651.422" y="221.5" width="221" height="71" rx="7.5" stroke="#2B323B" stroke-opacity="0.08"/>
<path d="M692.124 239L687.124 253.02H685.144L683.284 248.08L681.744 243.38L680.204 248.1L678.364 253.02H676.404L671.324 239H673.824L677.384 249.78L681.004 239H682.444L686.144 249.78L689.624 239H692.124ZM700.655 244.7L700.715 243.14H702.715C702.715 246.42 702.715 249.72 702.715 253H700.755L700.655 251.4C699.995 252.66 698.475 253.26 697.255 253.26C694.375 253.28 692.195 251.42 692.195 248.06C692.195 244.76 694.455 242.92 697.295 242.92C698.695 242.92 700.035 243.58 700.655 244.7ZM697.455 244.8C695.695 244.8 694.255 246.04 694.255 248.06C694.255 250.1 695.695 251.34 697.455 251.34C701.715 251.34 701.715 244.8 697.455 244.8ZM712.969 244.2L711.809 245.56C711.029 244.84 710.189 244.64 709.209 244.64C707.949 244.62 707.109 245.04 707.109 245.82C707.129 246.64 707.989 246.96 709.249 247.08C711.069 247.24 713.449 247.64 713.429 250.18C713.409 252.02 711.789 253.3 709.229 253.3C707.629 253.3 706.029 252.94 704.729 251.48L705.809 250.02C706.729 251.04 708.109 251.46 709.269 251.48C710.249 251.48 711.349 251.12 711.369 250.2C711.389 249.32 710.549 248.98 709.089 248.84C707.229 248.66 705.089 248.06 705.069 245.88C705.069 243.7 707.329 242.88 709.169 242.88C710.689 242.88 711.869 243.22 712.969 244.2ZM716.59 240.52L718.67 240.3V243.16H721.55V244.94H718.65V249.64C718.65 250.68 719.11 251.26 720.07 251.26C720.47 251.26 720.93 251.12 721.33 250.92L721.93 252.68C721.25 252.98 720.65 253.12 719.95 253.12C717.81 253.18 716.59 251.96 716.59 249.64V244.94H714.69V243.16H716.59V240.52ZM733.174 248.84H725.174C725.354 250.34 726.594 251.32 728.394 251.32C729.394 251.32 730.654 250.94 731.254 250.26L732.594 251.56C731.574 252.68 729.874 253.24 728.354 253.24C725.114 253.24 723.034 251.18 723.034 248.02C723.034 245.02 725.134 242.88 728.214 242.88C731.394 242.88 733.554 244.82 733.174 248.84ZM725.214 247.1H731.194C731.074 245.54 729.934 244.72 728.274 244.72C726.774 244.72 725.534 245.54 725.214 247.1ZM744.835 244.86C743.095 244.86 741.715 246.04 741.715 248.06C741.715 250.04 743.095 251.28 744.835 251.28C746.555 251.28 747.975 250 747.975 248.06C747.975 246.16 746.555 244.86 744.835 244.86ZM748.115 239.02H750.175V253H748.235L748.115 251.44C747.335 252.7 746.015 253.2 744.695 253.2C741.835 253.2 739.655 251.32 739.655 248.06C739.655 244.7 741.795 242.92 744.655 242.92C745.855 242.92 747.475 243.52 748.115 244.68V239.02ZM755.03 243.1V253H752.97V243.1H755.03ZM752.61 240.06C752.61 241.94 755.43 241.94 755.43 240.06C755.43 238.22 752.61 238.22 752.61 240.06ZM765.294 244.2L764.134 245.56C763.354 244.84 762.514 244.64 761.534 244.64C760.274 244.62 759.434 245.04 759.434 245.82C759.454 246.64 760.314 246.96 761.574 247.08C763.394 247.24 765.774 247.64 765.754 250.18C765.734 252.02 764.114 253.3 761.554 253.3C759.954 253.3 758.354 252.94 757.054 251.48L758.134 250.02C759.054 251.04 760.434 251.46 761.594 251.48C762.574 251.48 763.674 251.12 763.694 250.2C763.714 249.32 762.874 248.98 761.414 248.84C759.554 248.66 757.414 248.06 757.394 245.88C757.394 243.7 759.654 242.88 761.494 242.88C763.014 242.88 764.194 243.22 765.294 244.2ZM774.754 250.34L776.154 251.72C775.054 252.8 773.834 253.26 772.414 253.26C769.574 253.26 767.214 251.48 767.214 248.08C767.214 244.68 769.554 242.9 772.414 242.9C773.774 242.9 774.914 243.32 775.974 244.36L774.654 245.74C774.034 245.14 773.214 244.86 772.434 244.86C770.654 244.86 769.274 246.12 769.274 248.08C769.274 250.16 770.714 251.26 772.414 251.26C773.254 251.26 774.114 251 774.754 250.34ZM777.99 239H780.05V244.6C780.91 243.4 782.07 243 783.25 243C786.03 243 787.31 244.86 787.31 247.68V253H785.25V247.7C785.25 245.84 784.29 244.92 782.77 244.92C781.17 244.92 780.05 246.24 780.05 247.86V253H777.99V239ZM797.823 244.7L797.883 243.14H799.883C799.883 246.42 799.883 249.72 799.883 253H797.923L797.823 251.4C797.163 252.66 795.643 253.26 794.423 253.26C791.543 253.28 789.363 251.42 789.363 248.06C789.363 244.76 791.623 242.92 794.463 242.92C795.863 242.92 797.203 243.58 797.823 244.7ZM794.623 244.8C792.863 244.8 791.423 246.04 791.423 248.06C791.423 250.1 792.863 251.34 794.623 251.34C798.883 251.34 798.883 244.8 794.623 244.8ZM802.677 243.14H804.597L804.737 244.44C805.457 243.18 806.577 242.92 807.637 242.92C808.597 242.92 809.517 243.26 810.077 243.76L809.137 245.56C808.637 245.16 808.157 244.96 807.397 244.96C805.977 244.96 804.737 245.84 804.737 247.66V253H802.677V243.14ZM818.671 243.52L819.751 242.2L821.251 243.36L820.071 244.74C820.891 245.7 821.271 246.58 821.271 247.8C821.271 249.54 820.411 250.96 818.651 251.64C820.671 252.32 821.251 253.68 821.251 254.86C821.251 257.54 818.611 258.88 815.971 258.88C812.751 258.88 810.691 257.24 810.771 254.5H812.831C812.771 256.04 814.331 256.86 815.971 256.88C817.491 256.88 819.111 256.26 819.111 254.86C819.111 253.48 817.851 252.72 816.011 252.72C812.811 252.72 810.671 250.88 810.671 247.8C810.671 244.5 813.331 242.84 816.011 242.84C816.831 242.84 817.971 243.04 818.671 243.52ZM816.011 244.76C814.331 244.76 812.751 245.74 812.751 247.8C812.751 249.76 814.231 250.82 816.011 250.82C817.831 250.82 819.211 249.58 819.211 247.8C819.211 245.86 817.711 244.76 816.011 244.76ZM833.096 248.84H825.096C825.276 250.34 826.516 251.32 828.316 251.32C829.316 251.32 830.576 250.94 831.176 250.26L832.516 251.56C831.496 252.68 829.796 253.24 828.276 253.24C825.036 253.24 822.956 251.18 822.956 248.02C822.956 245.02 825.056 242.88 828.136 242.88C831.316 242.88 833.476 244.82 833.096 248.84ZM825.136 247.1H831.116C830.996 245.54 829.856 244.72 828.196 244.72C826.696 244.72 825.456 245.54 825.136 247.1ZM845.177 246.74C843.037 246.74 842.037 247.9 842.037 248.9C842.037 250.46 843.457 251.18 845.257 251.18C846.377 251.18 848.417 250.66 848.417 249.02V246.74C847.337 246.74 846.257 246.74 845.177 246.74ZM850.517 246.74V249.02C850.517 250.02 850.877 250.88 851.897 250.88V253.04C850.837 253.08 849.737 252.72 849.337 251.22C848.477 252.54 846.977 253.22 845.157 253.22C842.257 253.22 839.837 251.76 839.837 248.88C839.837 247.56 840.837 246.28 842.157 245.84C840.917 245.34 840.197 244.12 840.197 242.9C840.217 240.12 842.677 238.82 845.357 238.82C847.737 238.82 850.297 239.66 850.317 242.66H848.217C848.217 241.14 846.837 240.72 845.297 240.72C843.097 240.72 842.357 241.88 842.377 242.9C842.377 244.5 844.177 244.96 845.297 244.96C847.457 244.96 849.557 244.96 851.697 244.96V246.74H850.517ZM709.642 275H707.562V269.58C707.562 268.12 706.722 266.9 705.262 266.9C703.802 266.9 702.882 268.12 702.882 269.58V275H700.822V265.12H702.742L702.882 266.44C703.442 265.36 704.602 264.96 705.642 264.96C706.902 264.96 708.182 265.48 708.742 266.94C709.542 265.48 710.782 264.98 712.122 264.98C714.842 264.98 716.302 266.7 716.302 269.54V275H714.222V269.54C714.222 268.08 713.502 266.92 712.042 266.92C710.582 266.92 709.642 268.12 709.642 269.58V275ZM726.826 266.7L726.886 265.14H728.886C728.886 268.42 728.886 271.72 728.886 275H726.926L726.826 273.4C726.166 274.66 724.646 275.26 723.426 275.26C720.546 275.28 718.366 273.42 718.366 270.06C718.366 266.76 720.626 264.92 723.466 264.92C724.866 264.92 726.206 265.58 726.826 266.7ZM723.626 266.8C721.866 266.8 720.426 268.04 720.426 270.06C720.426 272.1 721.866 273.34 723.626 273.34C727.886 273.34 727.886 266.8 723.626 266.8ZM741.241 275H739.161V269.72C739.161 268.02 738.201 266.88 736.501 266.88C734.861 266.88 733.741 268.22 733.741 269.84V275H731.681V265.12H733.561L733.681 266.56C734.621 265.5 735.721 264.98 737.001 264.98C739.401 264.98 741.241 266.68 741.241 269.7V275ZM743.728 265.14H745.788V270.42C745.788 272.1 746.748 273.26 748.468 273.26C750.088 273.26 751.208 271.92 751.208 270.28V265.14H753.268V275.02H751.408L751.288 273.56C750.328 274.66 749.268 275.16 747.888 275.16C745.468 275.16 743.728 273.42 743.728 270.44V265.14ZM763.936 266.7L763.996 265.14H765.996C765.996 268.42 765.996 271.72 765.996 275H764.036L763.936 273.4C763.276 274.66 761.756 275.26 760.536 275.26C757.656 275.28 755.476 273.42 755.476 270.06C755.476 266.76 757.736 264.92 760.576 264.92C761.976 264.92 763.316 265.58 763.936 266.7ZM760.736 266.8C758.976 266.8 757.536 268.04 757.536 270.06C757.536 272.1 758.976 273.34 760.736 273.34C764.996 273.34 764.996 266.8 760.736 266.8ZM768.871 261.02H770.931V275H768.871V261.02ZM784.522 265.12H786.302L788.662 272.88L791.102 265.12H793.402L789.942 275.04H787.542L786.382 271.76L785.422 268.32L784.442 271.76L783.282 275.04H780.882L777.402 265.12H779.722L782.162 272.88L784.522 265.12ZM799.442 264.94C802.482 264.94 804.562 267.18 804.562 270.08C804.562 273 802.542 275.2 799.442 275.2C796.362 275.2 794.362 273 794.362 270.08C794.362 267.18 796.382 264.94 799.442 264.94ZM799.442 266.84C797.562 266.84 796.422 268.34 796.422 270.08C796.422 271.84 797.562 273.28 799.442 273.28C801.342 273.28 802.482 271.84 802.482 270.08C802.482 268.34 801.242 266.84 799.442 266.84ZM806.74 265.14H808.66L808.8 266.44C809.52 265.18 810.64 264.92 811.7 264.92C812.66 264.92 813.58 265.26 814.14 265.76L813.2 267.56C812.7 267.16 812.22 266.96 811.46 266.96C810.04 266.96 808.8 267.84 808.8 269.66V275H806.74V265.14ZM815.548 261.02H817.628V269.18L821.288 265.14H823.788V265.26L819.528 269.78L824.368 274.86V275H821.848L817.628 270.44V275H815.548V261.02Z" fill="#2B323B"/>
<path d="M875.715 256.293C875.324 256.683 875.324 257.317 875.715 257.707L882.079 264.071C882.469 264.462 883.102 264.462 883.493 264.071C883.883 263.681 883.883 263.047 883.493 262.657L877.836 257L883.493 251.343C883.883 250.953 883.883 250.319 883.493 249.929C883.102 249.538 882.469 249.538 882.079 249.929L875.715 256.293ZM961.5 256H876.422V258H961.5V256Z" fill="#2B323B"/>
<path d="M917.13 122.53C918.292 121.921 919.678 121.921 920.84 122.53L985.656 156.456C988.516 157.953 988.516 162.047 985.656 163.544L920.84 197.47C919.678 198.079 918.292 198.079 917.13 197.47L852.314 163.544C849.454 162.047 849.454 157.953 852.314 156.456L917.13 122.53Z" fill="#ABEBD1"/>
<path d="M897.592 165H895.372V151H897.592V165ZM903.354 153.04V158.64H907.594C911.294 158.64 911.274 153.04 907.594 153.04H903.354ZM907.594 160.7H903.354V165H901.114V151C903.254 151 905.454 150.98 907.594 150.98C914.274 150.98 914.294 160.66 907.594 160.7ZM921.242 150.7C926.102 150.7 928.342 154.22 928.382 157.86C928.402 159.5 927.942 161.18 927.002 162.48L928.682 164.14L927.122 165.72L925.402 164.04C924.322 164.8 922.922 165.22 921.242 165.22C916.302 165.22 914.062 161.66 914.062 157.96C914.062 154.28 916.382 150.7 921.242 150.7ZM921.242 152.74C917.862 152.74 916.242 155.38 916.282 158C916.302 160.56 917.942 163.14 921.242 163.14C924.602 163.14 926.242 160.42 926.162 157.8C926.102 155.28 924.702 152.74 921.242 152.74ZM941.295 161.66L942.835 163.2C941.395 164.62 939.535 165.28 937.575 165.28C932.495 165.28 930.215 161.78 930.195 158.1C930.175 154.42 932.575 150.76 937.575 150.76C939.455 150.76 941.275 151.46 942.695 152.88L941.195 154.32C940.195 153.34 938.875 152.88 937.575 152.88C934.015 152.88 932.395 155.5 932.415 158.08C932.435 160.64 933.955 163.18 937.575 163.18C938.875 163.18 940.315 162.64 941.295 161.66Z" fill="#2B323B"/>
<path d="M547.204 256.293C546.814 256.683 546.814 257.317 547.204 257.707L553.568 264.071C553.959 264.462 554.592 264.462 554.982 264.071C555.373 263.68 555.373 263.047 554.982 262.657L549.325 257L554.982 251.343C555.373 250.953 555.373 250.319 554.982 249.929C554.592 249.538 553.959 249.538 553.568 249.929L547.204 256.293ZM647.422 256H547.911V258H647.422V256Z" fill="#2B323B"/>
<path d="M648.129 64.7071C648.52 64.3166 648.52 63.6834 648.129 63.2929L641.765 56.9289C641.375 56.5384 640.741 56.5384 640.351 56.9289C639.96 57.3194 639.96 57.9526 640.351 58.3431L646.008 64L640.351 69.6568C639.96 70.0474 639.96 70.6805 640.351 71.0711C640.741 71.4616 641.375 71.4616 641.765 71.0711L648.129 64.7071ZM597.667 61H598.667H597.667ZM597.667 61H598.667H597.667ZM547.911 59H594.667V57H547.911V59ZM600.667 65H647.422V63H600.667V65ZM596.667 61C596.667 63.2091 598.457 65 600.667 65V63C599.562 63 598.667 62.1046 598.667 61H596.667ZM594.667 59C595.771 59 596.667 59.8954 596.667 61H598.667C598.667 58.7909 596.876 57 594.667 57V59Z" fill="#2B323B"/>
<path d="M427.306 434.904C429.605 433.72 432.335 433.72 434.633 434.904L530.606 484.346C536.388 487.325 536.388 495.591 530.606 498.57L434.633 548.012C432.334 549.196 429.605 549.196 427.306 548.012L331.333 498.57C325.551 495.591 325.551 487.325 331.333 484.346L427.306 434.904Z" fill="white"/>
<path d="M427.535 435.349C429.69 434.238 432.249 434.238 434.405 435.349L530.377 484.791C535.798 487.583 535.798 495.333 530.377 498.125L434.404 547.568C432.249 548.678 429.69 548.678 427.535 547.568L331.562 498.125C326.142 495.333 326.142 487.583 331.562 484.791L427.535 435.349Z" stroke="#2B323B" stroke-opacity="0.08"/>
<path d="M415.925 482.198C420.705 482.218 423.045 485.738 423.045 489.518C423.045 493.298 420.745 496.758 415.885 496.758C411.025 496.758 408.725 493.218 408.725 489.538C408.725 485.278 411.705 482.198 415.925 482.198ZM410.945 489.558C410.985 492.038 412.425 494.698 415.885 494.698C419.365 494.698 420.825 492.238 420.825 489.558C420.825 486.978 419.345 484.298 415.925 484.238C412.685 484.238 410.945 486.498 410.945 489.558ZM431.998 482.158C436.858 482.158 439.098 485.678 439.138 489.318C439.158 490.958 438.698 492.638 437.758 493.938L439.438 495.598L437.878 497.178L436.158 495.498C435.078 496.258 433.678 496.678 431.998 496.678C427.058 496.678 424.818 493.118 424.818 489.418C424.818 485.738 427.138 482.158 431.998 482.158ZM431.998 484.198C428.618 484.198 426.998 486.838 427.038 489.458C427.058 492.018 428.698 494.598 431.998 494.598C435.358 494.598 436.998 491.878 436.918 489.258C436.858 486.738 435.458 484.198 431.998 484.198ZM452.052 493.118L453.592 494.658C452.152 496.078 450.292 496.738 448.332 496.738C443.252 496.738 440.972 493.238 440.952 489.558C440.932 485.878 443.332 482.218 448.332 482.218C450.212 482.218 452.032 482.918 453.452 484.338L451.952 485.778C450.952 484.798 449.632 484.338 448.332 484.338C444.772 484.338 443.152 486.958 443.172 489.538C443.192 492.098 444.712 494.638 448.332 494.638C449.632 494.638 451.072 494.098 452.052 493.118Z" fill="#2B323B"/>
<path d="M431.97 405.493C431.97 404.941 431.522 404.493 430.97 404.493C430.417 404.493 429.97 404.941 429.97 405.493H431.97ZM454.267 384.993C453.714 384.993 453.267 385.441 453.267 385.993C453.267 386.546 453.714 386.993 454.267 386.993V384.993ZM677.629 386.701C678.02 386.31 678.02 385.677 677.629 385.286L671.265 378.922C670.875 378.532 670.241 378.532 669.851 378.922C669.46 379.313 669.46 379.946 669.851 380.337L675.508 385.993L669.851 391.65C669.46 392.041 669.46 392.674 669.851 393.064C670.241 393.455 670.875 393.455 671.265 393.064L677.629 386.701ZM431.97 429.517V405.493H429.97V429.517H431.97ZM454.267 386.993H676.922V384.993H454.267V386.993Z" fill="#EE1B24"/>
<path d="M435.728 380.357V391.993H434.115L428.2 383.459H428.092V391.993H426.336V380.357H427.961L433.882 388.902H433.99V380.357H435.728ZM441.653 392.17C440.835 392.17 440.121 391.982 439.511 391.607C438.901 391.232 438.428 390.707 438.091 390.033C437.753 389.359 437.585 388.571 437.585 387.67C437.585 386.764 437.753 385.973 438.091 385.295C438.428 384.617 438.901 384.09 439.511 383.715C440.121 383.34 440.835 383.152 441.653 383.152C442.471 383.152 443.185 383.34 443.795 383.715C444.405 384.09 444.878 384.617 445.216 385.295C445.553 385.973 445.721 386.764 445.721 387.67C445.721 388.571 445.553 389.359 445.216 390.033C444.878 390.707 444.405 391.232 443.795 391.607C443.185 391.982 442.471 392.17 441.653 392.17ZM441.659 390.743C442.189 390.743 442.628 390.603 442.977 390.323C443.325 390.043 443.583 389.67 443.75 389.204C443.92 388.738 444.005 388.224 444.005 387.664C444.005 387.107 443.92 386.596 443.75 386.13C443.583 385.66 443.325 385.283 442.977 384.999C442.628 384.715 442.189 384.573 441.659 384.573C441.125 384.573 440.681 384.715 440.329 384.999C439.981 385.283 439.721 385.66 439.551 386.13C439.384 386.596 439.301 387.107 439.301 387.664C439.301 388.224 439.384 388.738 439.551 389.204C439.721 389.67 439.981 390.043 440.329 390.323C440.681 390.603 441.125 390.743 441.659 390.743Z" fill="#EE1B24"/>
<path d="M314.735 492.165C315.126 491.775 315.126 491.141 314.735 490.751L308.371 484.387C307.981 483.996 307.348 483.996 306.957 484.387C306.567 484.778 306.567 485.411 306.957 485.801L312.614 491.458L306.957 497.115C306.567 497.505 306.567 498.139 306.957 498.529C307.348 498.92 307.981 498.92 308.371 498.529L314.735 492.165ZM116.5 296.5V467.458H118.5V296.5H116.5ZM141.5 492.458H314.028V490.458H141.5V492.458ZM116.5 467.458C116.5 481.265 127.693 492.458 141.5 492.458V490.458C128.797 490.458 118.5 480.161 118.5 467.458H116.5Z" fill="#2B323B"/>
<path d="M677.629 492.165C678.02 491.775 678.02 491.141 677.629 490.751L671.265 484.387C670.875 483.996 670.241 483.996 669.851 484.387C669.46 484.777 669.46 485.411 669.851 485.801L675.508 491.458L669.851 497.115C669.46 497.505 669.46 498.139 669.851 498.529C670.241 498.92 670.875 498.92 671.265 498.529L677.629 492.165ZM547.911 492.458H676.922V490.458H547.911V492.458Z" fill="#2B323B"/>
</svg>
